<?xml version="1.0" encoding="UTF-8"?>
<svg version="1.1" xmlns="http://www.w3.org/2000/svg" width="500" height="500">
<path d="M0 0 C0.83265381 0.00523682 1.66530762 0.01047363 2.52319336 0.01586914 C3.42231445 0.0190918 4.32143555 0.02231445 5.24780273 0.02563477 C6.66609375 0.03820312 6.66609375 0.03820312 8.11303711 0.05102539 C9.06243164 0.05553711 10.01182617 0.06004883 10.98999023 0.06469727 C13.34356776 0.07652429 15.69702188 0.09300514 18.05053711 0.11352539 C19.68945555 4.04083959 21.325033 7.96952469 22.95776367 11.89941406 C23.51157455 13.23115916 24.06623648 14.56255072 24.62182617 15.89355469 C34.05053711 38.48672034 34.05053711 38.48672034 34.05053711 42.11352539 C34.81366211 42.38165039 35.57678711 42.64977539 36.36303711 42.92602539 C40.43260282 44.72420559 42.27060081 47.12369087 44.23803711 51.05102539 C44.5822168 51.72004883 44.92639648 52.38907227 45.28100586 53.07836914 C46.05053711 55.11352539 46.05053711 55.11352539 46.05053711 59.11352539 C44.73053711 59.44352539 43.41053711 59.77352539 42.05053711 60.11352539 C42.50106445 61.12672852 42.50106445 61.12672852 42.96069336 62.16040039 C43.3409668 63.05243164 43.72124023 63.94446289 44.11303711 64.86352539 C44.49588867 65.74524414 44.87874023 66.62696289 45.27319336 67.53540039 C46.05053711 70.11352539 46.05053711 70.11352539 45.05053711 74.11352539 C38.78053711 74.11352539 32.51053711 74.11352539 26.05053711 74.11352539 C21.05053711 63.61352539 21.05053711 63.61352539 21.05053711 59.11352539 C14.78053711 59.11352539 8.51053711 59.11352539 2.05053711 59.11352539 C1.72053711 58.45352539 1.39053711 57.79352539 1.05053711 57.11352539 C1.78232576 55.04155908 2.60952714 53.00267019 3.48803711 50.98852539 C3.96112305 49.89282227 4.43420898 48.79711914 4.92163086 47.66821289 C5.29416992 46.82516602 5.66670898 45.98211914 6.05053711 45.11352539 C8.69053711 45.11352539 11.33053711 45.11352539 14.05053711 45.11352539 C12.07053711 40.16352539 10.09053711 35.21352539 8.05053711 30.11352539 C5.59782699 35.47993692 3.31032514 40.89266282 1.14038086 46.37915039 C0.88471344 47.02501099 0.62904602 47.67087158 0.3656311 48.33630371 C-0.6980043 51.02742645 -1.75934095 53.71942768 -2.81591797 56.41333008 C-3.5974282 58.4034966 -4.38440263 60.39143368 -5.17211914 62.37915039 C-5.63368408 63.55251953 -6.09524902 64.72588867 -6.57080078 65.93481445 C-9.01477195 71.56975418 -9.01477195 71.56975418 -10.94946289 74.11352539 C-13.03417969 74.68115234 -13.03417969 74.68115234 -15.39868164 74.60180664 C-16.24624023 74.58569336 -17.09379883 74.56958008 -17.96704102 74.55297852 C-18.84811523 74.51108398 -19.72918945 74.46918945 -20.63696289 74.42602539 C-21.97597656 74.3921875 -21.97597656 74.3921875 -23.34204102 74.35766602 C-25.54620561 74.29873113 -27.74698961 74.21653357 -29.94946289 74.11352539 C-31.10235942 70.65483579 -30.82037797 70.13160857 -29.47290039 66.90258789 C-29.13427979 66.07621826 -28.79565918 65.24984863 -28.44677734 64.3984375 C-28.07641357 63.5206665 -27.7060498 62.64289551 -27.32446289 61.73852539 C-26.57501191 59.91982512 -25.82631374 58.10081444 -25.07836914 56.28149414 C-24.71114746 55.39510254 -24.34392578 54.50871094 -23.96557617 53.59545898 C-22.67141888 50.43438185 -21.46171852 47.24908782 -20.26196289 44.05102539 C-18.80658816 40.2282411 -17.24401529 36.50630204 -15.51196289 32.80102539 C-12.5059499 26.33526161 -10.10999984 19.65969856 -7.64282227 12.97583008 C-2.87407177 0.16736924 -2.87407177 0.16736924 0 0 Z " fill="#F9721A" transform="translate(134.949462890625,207.886474609375)"/>
<path d="M0 0 C6.27 0 12.54 0 19 0 C17.87688637 7.86179541 17.87688637 7.86179541 16.44140625 10.8671875 C16.13783203 11.52589844 15.83425781 12.18460938 15.52148438 12.86328125 C15.20501953 13.52714844 14.88855469 14.19101563 14.5625 14.875 C12.6494917 18.89034526 10.97683052 22.65740909 10.140625 27.04296875 C8.85836826 33.40034171 6.35981119 39.35763957 3.99682617 45.37426758 C3.1917658 47.42662512 2.39889375 49.48338521 1.60742188 51.54101562 C-1.24296872 58.89258292 -4.33218781 66.0101398 -8 73 C-14.27 73 -20.54 73 -27 73 C-28.15289653 69.5413104 -27.87091508 69.01808318 -26.5234375 65.7890625 C-26.18481689 64.96269287 -25.84619629 64.13632324 -25.49731445 63.28491211 C-25.12695068 62.40714111 -24.75658691 61.52937012 -24.375 60.625 C-23.62554901 58.80629973 -22.87685085 56.98728905 -22.12890625 55.16796875 C-21.76168457 54.28157715 -21.39446289 53.39518555 -21.01611328 52.48193359 C-19.72195599 49.32085646 -18.51225563 46.13556243 -17.3125 42.9375 C-15.85712527 39.11471571 -14.2945524 35.39277665 -12.5625 31.6875 C-9.85149788 25.85628789 -7.64870929 19.8685291 -5.42578125 13.83984375 C-3.70958191 9.18849464 -1.86597553 4.59317054 0 0 Z " fill="#FB6813" transform="translate(132,209)"/>
<path d="M0 0 C0.96808594 -0.01675781 1.93617188 -0.03351563 2.93359375 -0.05078125 C6.03686087 0.37805061 6.69529571 0.86000283 8.5625 3.3125 C8.99487305 5.67260742 8.99487305 5.67260742 9.07421875 8.41796875 C9.12739258 9.89233398 9.12739258 9.89233398 9.18164062 11.39648438 C9.20419922 12.42064453 9.22675781 13.44480469 9.25 14.5 C9.30124023 16.05364258 9.30124023 16.05364258 9.35351562 17.63867188 C9.43602642 20.1965066 9.50516572 22.75399723 9.5625 25.3125 C11.56204746 25.35504356 13.56291636 25.35330783 15.5625 25.3125 C17.24105968 23.63394032 16.77045564 21.52206432 16.84375 19.21875 C16.88113281 18.18878906 16.91851562 17.15882813 16.95703125 16.09765625 C16.99183594 15.01355469 17.02664063 13.92945313 17.0625 12.8125 C17.13106141 10.67693906 17.20375012 8.54150524 17.28125 6.40625 C17.31154297 5.45427734 17.34183594 4.50230469 17.37304688 3.52148438 C17.5625 1.3125 17.5625 1.3125 18.5625 0.3125 C20.53869447 0.18735072 22.51988173 0.1367724 24.5 0.125 C25.58152344 0.11082031 26.66304688 0.09664062 27.77734375 0.08203125 C30.5625 0.3125 30.5625 0.3125 32.5625 2.3125 C33.0247022 6.7319747 32.88646313 11.18418324 32.875 15.625 C32.89111328 16.86185547 32.90722656 18.09871094 32.92382812 19.37304688 C32.92447266 20.56607422 32.92511719 21.75910156 32.92578125 22.98828125 C32.92876221 24.08052002 32.93174316 25.17275879 32.93481445 26.2980957 C32.29927208 31.44369677 29.49413264 35.05486152 25.5625 38.3125 C17.73555015 41.45906918 8.36909369 41.81477832 0.4375 38.75 C-2.96750577 37.25948191 -4.90767469 34.92432185 -6.65673828 31.65112305 C-8.38903761 26.46235028 -7.92101725 20.90587224 -7.8125 15.5 C-7.81121094 14.26056641 -7.80992187 13.02113281 -7.80859375 11.74414062 C-7.69344202 0.03065116 -7.69344202 0.03065116 0 0 Z " fill="#F75C13" transform="translate(327.4375,241.6875)"/>
<path d="M0 0 C0.97710937 -0.02578125 1.95421875 -0.0515625 2.9609375 -0.078125 C5.625 0.25 5.625 0.25 7.25952148 1.45141602 C9.06448043 3.82887579 9.05096986 5.38855729 9.13671875 8.35546875 C9.17216797 9.33837891 9.20761719 10.32128906 9.24414062 11.33398438 C9.26669922 12.35814453 9.28925781 13.38230469 9.3125 14.4375 C9.36374023 15.99114258 9.36374023 15.99114258 9.41601562 17.57617188 C9.49852642 20.1340066 9.56766572 22.69149723 9.625 25.25 C11.62454746 25.29254356 13.62541636 25.29080783 15.625 25.25 C17.30800669 23.56699331 16.85309077 21.42991273 16.94140625 19.12109375 C16.98330078 18.08662109 17.02519531 17.05214844 17.06835938 15.98632812 C17.10767578 14.89771484 17.14699219 13.80910156 17.1875 12.6875 C17.23068359 11.59501953 17.27386719 10.50253906 17.31835938 9.37695312 C17.42482068 6.66810436 17.52683516 3.95916008 17.625 1.25 C20.22679663 -0.05089831 22.2219188 0.08159922 25.125 0.0625 C26.1046875 0.04832031 27.084375 0.03414062 28.09375 0.01953125 C30.625 0.25 30.625 0.25 32.625 2.25 C33.0872022 6.6694747 32.94896313 11.12168324 32.9375 15.5625 C32.95361328 16.79935547 32.96972656 18.03621094 32.98632812 19.31054688 C32.98697266 20.50357422 32.98761719 21.69660156 32.98828125 22.92578125 C32.99126221 24.01802002 32.99424316 25.11025879 32.99731445 26.2355957 C32.36177208 31.38119677 29.55663264 34.99236152 25.625 38.25 C18.40689351 41.17062112 8.98290638 41.88722176 1.5625 39.125 C-1.98036965 36.86359384 -4.59325513 35.08295503 -6.375 31.25 C-7.02483999 26.13493414 -6.88997605 21.0765353 -6.75 15.9375 C-6.73347695 14.52801887 -6.71913299 13.1185104 -6.70703125 11.70898438 C-6.5536781 0.10320753 -6.5536781 0.10320753 0 0 Z " fill="#FB590D" transform="translate(200.375,241.75)"/>
<path d="M0 0 C0.721875 0.495 1.44375 0.99 2.1875 1.5 C2.80278766 6.57612318 0.80408349 9.32982006 -1.8125 13.5 C-1.008125 14.11875 -0.20375 14.7375 0.625 15.375 C3.17920072 17.49311767 4.03302736 18.23383079 4.42578125 21.453125 C4.60544069 27.01311183 4.01342714 30.1706614 0.1875 34.5 C-3.67871037 38.26707677 -6.90041152 38.81732208 -12.125 39 C-17.76982951 38.81895163 -23.25229548 38.08618025 -27.8125 34.5 C-28.69140625 32.62109375 -28.69140625 32.62109375 -28.8125 30.5 C-27.88671875 28.39453125 -27.88671875 28.39453125 -26.5 26.3125 C-26.05011719 25.61769531 -25.60023438 24.92289062 -25.13671875 24.20703125 C-23.8125 22.5 -23.8125 22.5 -21.8125 21.5 C-22.4725 21.066875 -23.1325 20.63375 -23.8125 20.1875 C-26.96785739 15.94748851 -26.42709701 11.60646649 -25.8125 6.5 C-24.51871914 3.04991772 -23.33916137 1.90192578 -20.4375 -0.3125 C-14.13539625 -2.37698226 -6.11049717 -3.06254035 0 0 Z M-19.8125 22.5 C-18.06005753 24.1483633 -18.06005753 24.1483633 -15.8125 25.5 C-13.60449472 25.28282648 -13.60449472 25.28282648 -11.8125 24.5 C-14.71850261 23.24335022 -16.60854584 22.5 -19.8125 22.5 Z " fill="#F7530F" transform="translate(398.8125,243.5)"/>
<path d="M0 0 C0.96164063 0.01417969 1.92328125 0.02835938 2.9140625 0.04296875 C3.87054688 0.04941406 4.82703125 0.05585938 5.8125 0.0625 C8.5390625 0.23046875 8.5390625 0.23046875 10.828125 0.8046875 C11.67503906 1.01544922 11.67503906 1.01544922 12.5390625 1.23046875 C12.8690625 0.90046875 13.1990625 0.57046875 13.5390625 0.23046875 C15.20335301 0.13222938 16.87188181 0.10073244 18.5390625 0.10546875 C19.9003125 0.10160156 19.9003125 0.10160156 21.2890625 0.09765625 C23.5390625 0.23046875 23.5390625 0.23046875 24.5390625 1.23046875 C24.61165196 3.41686328 24.62280033 5.60547264 24.6015625 7.79296875 C24.59253906 8.99050781 24.58351563 10.18804687 24.57421875 11.421875 C24.56261719 12.34871094 24.55101562 13.27554688 24.5390625 14.23046875 C21.96840063 14.94825096 20.13261485 15.2223398 17.4140625 15.16796875 C14.40667138 14.9018122 14.40667138 14.9018122 12.5390625 17.23046875 C11.63498678 20.0006822 11.36766715 22.65837579 11.22265625 25.55859375 C11.18076172 26.3578125 11.13886719 27.15703125 11.09570312 27.98046875 C11.03672852 29.21796875 11.03672852 29.21796875 10.9765625 30.48046875 C10.93337891 31.3209375 10.89019531 32.16140625 10.84570312 33.02734375 C10.73997707 35.09487546 10.63904955 37.16265156 10.5390625 39.23046875 C8.22662458 39.25732287 5.9140998 39.27679716 3.6015625 39.29296875 C2.31378906 39.30457031 1.02601563 39.31617188 -0.30078125 39.328125 C-3.4609375 39.23046875 -3.4609375 39.23046875 -4.4609375 38.23046875 C-4.57430376 35.58760601 -4.62511511 32.97185419 -4.62890625 30.328125 C-4.63223465 29.53522568 -4.63556305 28.74232635 -4.63899231 27.92539978 C-4.64406476 26.24495017 -4.64640054 24.56449046 -4.64624023 22.8840332 C-4.64842536 20.30728616 -4.66657359 17.73096799 -4.68554688 15.15429688 C-4.68848095 13.52474105 -4.69046565 11.89518319 -4.69140625 10.265625 C-4.69859177 9.49162857 -4.70577728 8.71763214 -4.71318054 7.92018127 C-4.68109283 0.43838806 -4.68109283 0.43838806 0 0 Z " fill="#FB560C" transform="translate(249.4609375,241.76953125)"/>
<path d="M0 0 C1.59908203 0.01740234 1.59908203 0.01740234 3.23046875 0.03515625 C4.28878906 0.04417969 5.34710938 0.05320313 6.4375 0.0625 C7.91283203 0.07990234 7.91283203 0.07990234 9.41796875 0.09765625 C11.67190546 0.09765625 13.92593339 0.09118994 16.1796875 0.0625 C17.14519531 0.05347656 18.11070312 0.04445312 19.10546875 0.03515625 C20.07871094 0.02355469 21.05195313 0.01195312 22.0546875 0 C24.41796875 0.09765625 24.41796875 0.09765625 25.41796875 1.09765625 C25.86374965 6.11528308 25.76830366 10.54388236 23.41796875 15.09765625 C21.43229167 14.96744792 19.44661458 14.83723958 17.4609375 14.70703125 C15.32178108 14.94775168 15.32178108 14.94775168 13.6953125 16.5078125 C11.73487401 20.48264649 11.88396224 24.40771942 11.79296875 28.78515625 C11.74217925 30.51834778 11.68769522 32.25143636 11.62890625 33.984375 C11.61134277 34.74967529 11.5937793 35.51497559 11.57568359 36.3034668 C11.41796875 38.09765625 11.41796875 38.09765625 10.41796875 39.09765625 C8.0648332 39.17037366 5.70963207 39.18136493 3.35546875 39.16015625 C2.06511719 39.15113281 0.77476562 39.14210938 -0.5546875 39.1328125 C-1.55371094 39.12121094 -2.55273438 39.10960937 -3.58203125 39.09765625 C-3.60667974 33.70418637 -3.62486656 28.310749 -3.63696289 22.91723633 C-3.64200356 21.0809675 -3.64883602 19.24470271 -3.6574707 17.40844727 C-3.66954797 14.77489224 -3.67526206 12.14139009 -3.6796875 9.5078125 C-3.68484879 8.68177017 -3.69001007 7.85572784 -3.69532776 7.00465393 C-3.6955233 5.03529257 -3.64407277 3.06604011 -3.58203125 1.09765625 C-2.58203125 0.09765625 -2.58203125 0.09765625 0 0 Z " fill="#EB5518" transform="translate(286.58203125,241.90234375)"/>
<path d="M0 0 C6.6 0 13.2 0 20 0 C21.63804301 3.92769748 23.27449233 7.85599073 24.90722656 11.78588867 C25.46103744 13.11763377 26.01569937 14.44902533 26.57128906 15.7800293 C36 38.37319495 36 38.37319495 36 42 C36.763125 42.268125 37.52625 42.53625 38.3125 42.8125 C40.93603434 43.9717361 42.27119728 44.75255646 44 47 C44.6875 49.1875 44.6875 49.1875 45 51 C44.34 51 43.68 51 43 51 C42.34 50.01 41.68 49.02 41 48 C37.57117059 46.85705686 34.75917162 46.79035528 31.14453125 46.68359375 C30.48289474 46.66281265 29.82125824 46.64203156 29.13957214 46.62062073 C27.03065148 46.55535273 24.92160865 46.49634656 22.8125 46.4375 C21.38084685 46.39429311 19.94920596 46.35067812 18.51757812 46.30664062 C15.01184846 46.19969494 11.50598214 46.09836359 8 46 C8 45.67 8 45.34 8 45 C10.64 45 13.28 45 16 45 C15.22462891 43.26363281 15.22462891 43.26363281 14.43359375 41.4921875 C13.76744009 39.95346637 13.10211915 38.41438455 12.4375 36.875 C12.09525391 36.11445313 11.75300781 35.35390625 11.40039062 34.5703125 C8.75597837 28.37330601 8.8363797 24.95484923 11.33984375 18.59765625 C11.86707031 17.43105469 12.39429688 16.26445312 12.9375 15.0625 C15.07632322 10.31715019 16.54975932 6.07584237 18 1 C12.06 1 6.12 1 0 1 C0 0.67 0 0.34 0 0 Z " fill="#C93903" transform="translate(133,208)"/>
<path d="M0 0 C0.97710937 -0.02578125 1.95421875 -0.0515625 2.9609375 -0.078125 C5.625 0.25 5.625 0.25 7.25952148 1.45141602 C9.06448043 3.82887579 9.05096986 5.38855729 9.13671875 8.35546875 C9.17216797 9.33837891 9.20761719 10.32128906 9.24414062 11.33398438 C9.26669922 12.35814453 9.28925781 13.38230469 9.3125 14.4375 C9.36374023 15.99114258 9.36374023 15.99114258 9.41601562 17.57617188 C9.49852642 20.1340066 9.56766572 22.69149723 9.625 25.25 C11.62454746 25.29254356 13.62541636 25.29080783 15.625 25.25 C17.30800669 23.56699331 16.85309077 21.42991273 16.94140625 19.12109375 C16.98330078 18.08662109 17.02519531 17.05214844 17.06835938 15.98632812 C17.10767578 14.89771484 17.14699219 13.80910156 17.1875 12.6875 C17.23068359 11.59501953 17.27386719 10.50253906 17.31835938 9.37695312 C17.42482068 6.66810436 17.52683516 3.95916008 17.625 1.25 C20.22679663 -0.05089831 22.2219188 0.08159922 25.125 0.0625 C26.1046875 0.04832031 27.084375 0.03414062 28.09375 0.01953125 C30.625 0.25 30.625 0.25 32.625 2.25 C33.0872022 6.6694747 32.94896313 11.12168324 32.9375 15.5625 C32.95361328 16.79935547 32.96972656 18.03621094 32.98632812 19.31054688 C32.98697266 20.50357422 32.98761719 21.69660156 32.98828125 22.92578125 C32.99126221 24.01802002 32.99424316 25.11025879 32.99731445 26.2355957 C32.36177208 31.38119677 29.55663264 34.99236152 25.625 38.25 C18.40689351 41.17062112 8.98290638 41.88722176 1.5625 39.125 C-1.98036965 36.86359384 -4.59325513 35.08295503 -6.375 31.25 C-7.02483999 26.13493414 -6.88997605 21.0765353 -6.75 15.9375 C-6.73347695 14.52801887 -6.71913299 13.1185104 -6.70703125 11.70898438 C-6.5536781 0.10320753 -6.5536781 0.10320753 0 0 Z M-5.375 3.25 C-5.48339074 6.93829602 -5.56251031 10.62337651 -5.625 14.3125 C-5.65851563 15.35083984 -5.69203125 16.38917969 -5.7265625 17.45898438 C-5.80953319 23.99292593 -5.22191683 27.911267 -1.375 33.25 C-0.715 33.25 -0.055 33.25 0.625 33.25 C0.625 33.91 0.625 34.57 0.625 35.25 C1.285 35.25 1.945 35.25 2.625 35.25 C2.625 35.91 2.625 36.57 2.625 37.25 C5.9853116 38.26534595 9.06086286 38.38383137 12.5625 38.375 C13.58214844 38.37757813 14.60179687 38.38015625 15.65234375 38.3828125 C18.42088725 38.25911936 20.93039535 37.87526738 23.625 37.25 C23.625 36.26 23.625 35.27 23.625 34.25 C24.945 34.25 26.265 34.25 27.625 34.25 C27.955 32.6 28.285 30.95 28.625 29.25 C29.285 29.25 29.945 29.25 30.625 29.25 C30.65386751 25.10418113 30.67175327 20.95838784 30.6875 16.8125 C30.70006836 15.03649414 30.70006836 15.03649414 30.71289062 13.22460938 C30.71611328 12.09990234 30.71933594 10.97519531 30.72265625 9.81640625 C30.72789307 8.77427979 30.73312988 7.73215332 30.73852539 6.65844727 C30.89805556 4.29871253 30.89805556 4.29871253 29.625 3.25 C27.93891034 3.17794489 26.24999341 3.16613932 24.5625 3.1875 C23.64339844 3.19652344 22.72429687 3.20554688 21.77734375 3.21484375 C21.06707031 3.22644531 20.35679687 3.23804688 19.625 3.25 C19.64071045 3.90073486 19.6564209 4.55146973 19.67260742 5.22192383 C19.73494649 8.16869424 19.77398684 11.11532598 19.8125 14.0625 C19.83763672 15.08666016 19.86277344 16.11082031 19.88867188 17.16601562 C19.89833984 18.14892578 19.90800781 19.13183594 19.91796875 20.14453125 C19.9336792 21.05050049 19.94938965 21.95646973 19.96557617 22.88989258 C19.625 25.25 19.625 25.25 18.29418945 27.0456543 C15.70619812 28.9129296 13.71843343 28.63667918 10.625 28.25 C8.35346954 26.59752105 7.7029554 25.6755194 7.19262695 22.88989258 C7.16644287 21.98392334 7.14025879 21.0779541 7.11328125 20.14453125 C7.07783203 19.16162109 7.04238281 18.17871094 7.00585938 17.16601562 C6.98330078 16.14185547 6.96074219 15.11769531 6.9375 14.0625 C6.88625977 12.50885742 6.88625977 12.50885742 6.83398438 10.92382812 C6.75148241 8.36626736 6.68656544 5.80815037 6.625 3.25 C2.665 3.25 -1.295 3.25 -5.375 3.25 Z " fill="#AC402F" transform="translate(200.375,241.75)"/>
<path d="M0 0 C3.96 0 7.92 0 12 0 C12.33 8.58 12.66 17.16 13 26 C12.01 26 11.02 26 10 26 C10.66 26.66 11.32 27.32 12 28 C12.33 28.66 12.66 29.32 13 30 C10.98177083 29.67447917 8.96354167 29.34895833 6.9453125 29.0234375 C6.30335938 29.01570313 5.66140625 29.00796875 5 29 C4.34 29.66 3.68 30.32 3 31 C-1.47523679 24.7682107 -1.52364925 19.65129782 -1.3125 12.125 C-1.30283203 11.06796875 -1.29316406 10.0109375 -1.28320312 8.921875 C-1.16859813 1.16859813 -1.16859813 1.16859813 0 0 Z " fill="#F9560F" transform="translate(322,244)"/>
<path d="M0 0 C0.66 0 1.32 0 2 0 C1.43554156 5.06031335 0.29535963 9.37223626 -1.546875 14.11328125 C-1.79995422 14.76773727 -2.05303345 15.4221933 -2.31378174 16.09648132 C-2.84819693 17.47350755 -3.386238 18.8491316 -3.92773438 20.22338867 C-4.74240782 22.29321073 -5.54394376 24.36775383 -6.34375 26.44335938 C-9.21153243 33.82614078 -12.31556649 40.97910725 -16 48 C-22.27 48 -28.54 48 -35 48 C-36.15289653 44.5413104 -35.87091508 44.01808318 -34.5234375 40.7890625 C-34.18465576 39.96237061 -33.84587402 39.13567871 -33.49682617 38.28393555 C-33.12662354 37.40648682 -32.7564209 36.52903809 -32.375 35.625 C-31.62820218 33.81148769 -30.88210872 31.99768517 -30.13671875 30.18359375 C-29.76981934 29.29784668 -29.40291992 28.41209961 -29.02490234 27.49951172 C-27.69159178 24.24786008 -26.43366014 20.97352843 -25.1875 17.6875 C-23.55578463 13.40975971 -21.85034703 9.1876275 -20 5 C-19.67 5 -19.34 5 -19 5 C-18.65506025 10.005459 -19.82653787 13.68217305 -21.8125 18.1875 C-25.33845562 26.58115571 -27.99083196 34.91748763 -29 44 C-27.906875 43.979375 -26.81375 43.95875 -25.6875 43.9375 C-22 44 -22 44 -19 45 C-19.33 44.34 -19.66 43.68 -20 43 C-20.039992 41.00039988 -20.04346799 38.99952758 -20 37 C-18.35 37.99 -16.7 38.98 -15 40 C-15 39.01 -15 38.02 -15 37 C-14.34 37 -13.68 37 -13 37 C-13.020625 36.195625 -13.04125 35.39125 -13.0625 34.5625 C-13 32 -13 32 -12 31 C-11.63239269 28.67182036 -11.29758419 26.3381615 -11 24 C-9.68 24 -8.36 24 -7 24 C-6.9175 23.030625 -6.835 22.06125 -6.75 21.0625 C-6.19854127 17.09839087 -4.68676822 13.88367855 -2.98828125 10.2890625 C-1.53866755 6.93145922 -0.77846181 3.56794997 0 0 Z " fill="#F48026" transform="translate(140,234)"/>
<path d="M0 0 C6.6 0 13.2 0 20 0 C24.65714286 9.31428571 24.65714286 9.31428571 25 14 C24 15 24 15 22.14233398 15.11352539 C21.35157471 15.10828857 20.56081543 15.10305176 19.74609375 15.09765625 C18.89208984 15.09443359 18.03808594 15.09121094 17.15820312 15.08789062 C16.26037109 15.07951172 15.36253906 15.07113281 14.4375 15.0625 C13.53580078 15.05798828 12.63410156 15.05347656 11.70507812 15.04882812 C9.46998686 15.03700225 7.23502563 15.0205222 5 15 C4.15733289 13.25447527 3.32619962 11.5033792 2.5 9.75 C2.0359375 8.77546875 1.571875 7.8009375 1.09375 6.796875 C0 4 0 4 0 0 Z " fill="#AD410B" transform="translate(156,267)"/>
<path d="M0 0 C33 0 66 0 100 0 C99.67 1.32 99.34 2.64 99 4 C66.66 4 34.32 4 1 4 C0.67 2.68 0.34 1.36 0 0 Z " fill="#6F729E" transform="translate(104,295)"/>
<path d="M0 0 C0 0.66 0 1.32 0 2 C0.99 2 1.98 2 3 2 C3.02705729 3.77074917 3.04642195 5.54161711 3.0625 7.3125 C3.07410156 8.29863281 3.08570313 9.28476562 3.09765625 10.30078125 C2.9747251 13.69859822 2.37928661 15.52589173 0.25 18.1875 C-2 20 -2 20 -4.625 20.3125 C-7 20 -7 20 -9 19 C-11.00800456 19.28112064 -13.01014051 19.61067967 -15 20 C-15.33 19.01 -15.66 18.02 -16 17 C-18.00016466 15.79117904 -18.00016466 15.79117904 -20 15 C-18 12 -18 12 -15.8359375 11.48828125 C-15.02382813 11.43027344 -14.21171875 11.37226563 -13.375 11.3125 C-12.55773437 11.24675781 -11.74046875 11.18101562 -10.8984375 11.11328125 C-10.27195312 11.07589844 -9.64546875 11.03851563 -9 11 C-8.67 9.68 -8.34 8.36 -8 7 C-10.97 6.505 -10.97 6.505 -14 6 C-12.7929807 2.37894209 -11.20134306 1.50755076 -7.921875 -0.28125 C-5.06363324 -1.35018594 -2.86794612 -0.83939887 0 0 Z " fill="#FA5E11" transform="translate(398,259)"/>
<path d="M0 0 C0.96164063 0.01417969 1.92328125 0.02835938 2.9140625 0.04296875 C3.87054688 0.04941406 4.82703125 0.05585938 5.8125 0.0625 C8.5390625 0.23046875 8.5390625 0.23046875 10.828125 0.8046875 C11.67503906 1.01544922 11.67503906 1.01544922 12.5390625 1.23046875 C12.8690625 0.90046875 13.1990625 0.57046875 13.5390625 0.23046875 C15.20335301 0.13222938 16.87188181 0.10073244 18.5390625 0.10546875 C19.9003125 0.10160156 19.9003125 0.10160156 21.2890625 0.09765625 C23.5390625 0.23046875 23.5390625 0.23046875 24.5390625 1.23046875 C24.61165196 3.41686328 24.62280033 5.60547264 24.6015625 7.79296875 C24.59253906 8.99050781 24.58351563 10.18804687 24.57421875 11.421875 C24.56261719 12.34871094 24.55101562 13.27554688 24.5390625 14.23046875 C21.96840063 14.94825096 20.13261485 15.2223398 17.4140625 15.16796875 C14.40667138 14.9018122 14.40667138 14.9018122 12.5390625 17.23046875 C11.63498678 20.0006822 11.36766715 22.65837579 11.22265625 25.55859375 C11.18076172 26.3578125 11.13886719 27.15703125 11.09570312 27.98046875 C11.03672852 29.21796875 11.03672852 29.21796875 10.9765625 30.48046875 C10.93337891 31.3209375 10.89019531 32.16140625 10.84570312 33.02734375 C10.73997707 35.09487546 10.63904955 37.16265156 10.5390625 39.23046875 C8.22662458 39.25732287 5.9140998 39.27679716 3.6015625 39.29296875 C2.31378906 39.30457031 1.02601563 39.31617188 -0.30078125 39.328125 C-3.4609375 39.23046875 -3.4609375 39.23046875 -4.4609375 38.23046875 C-4.57430376 35.58760601 -4.62511511 32.97185419 -4.62890625 30.328125 C-4.63223465 29.53522568 -4.63556305 28.74232635 -4.63899231 27.92539978 C-4.64406476 26.24495017 -4.64640054 24.56449046 -4.64624023 22.8840332 C-4.64842536 20.30728616 -4.66657359 17.73096799 -4.68554688 15.15429688 C-4.68848095 13.52474105 -4.69046565 11.89518319 -4.69140625 10.265625 C-4.69859177 9.49162857 -4.70577728 8.71763214 -4.71318054 7.92018127 C-4.68109283 0.43838806 -4.68109283 0.43838806 0 0 Z M-2.4609375 3.23046875 C-2.4609375 14.45046875 -2.4609375 25.67046875 -2.4609375 37.23046875 C4.80119771 37.65210577 4.80119771 37.65210577 8.5390625 36.23046875 C8.57870117 35.67584961 8.61833984 35.12123047 8.65917969 34.54980469 C8.85031941 32.02485952 9.06938622 29.50308468 9.2890625 26.98046875 C9.3509375 26.10777344 9.4128125 25.23507812 9.4765625 24.3359375 C10.07682535 17.78306805 10.07682535 17.78306805 12.6171875 14.74609375 C13.56851562 13.99585938 13.56851562 13.99585938 14.5390625 13.23046875 C14.5390625 12.57046875 14.5390625 11.91046875 14.5390625 11.23046875 C16.8490625 11.23046875 19.1590625 11.23046875 21.5390625 11.23046875 C21.8690625 8.26046875 22.1990625 5.29046875 22.5390625 2.23046875 C14.10830533 2.07991951 6.04388277 2.69891748 -2.4609375 3.23046875 Z " fill="#B44C38" transform="translate(249.4609375,241.76953125)"/>
<path d="M0 0 C2.37160148 2.37160148 2.31983352 3.00621122 2.375 6.25 C2.22147035 12.2280606 -0.22778776 15.2732291 -4.4375 19.375 C-10.62410528 22.1969603 -17.28246491 22.01340317 -23.80859375 20.234375 C-29.56875834 17.91187664 -29.56875834 17.91187664 -30.88671875 15.125 C-31.03796438 12.28784062 -30.15069116 11.07418219 -28.5625 8.75 C-28.08941406 8.04359375 -27.61632812 7.3371875 -27.12890625 6.609375 C-26.75636719 6.07828125 -26.38382812 5.5471875 -26 5 C-22.31733897 5.59950296 -18.65456815 6.24758891 -15 7 C-15 6.34 -15 5.68 -15 5 C-13.68 5 -12.36 5 -11 5 C-11.33 6.65 -11.66 8.3 -12 10 C-14.97 10 -17.94 10 -21 10 C-21.33714633 13.77502919 -21.33714633 13.77502919 -19.9375 15.8125 C-16.94851829 17.64445653 -14.38822689 16.51684817 -11 16 C-7.5625 16.9375 -7.5625 16.9375 -5 18 C-4.34 16.68 -3.68 15.36 -3 14 C-2.34 14 -1.68 14 -1 14 C-0.67 9.38 -0.34 4.76 0 0 Z " fill="#F5681D" transform="translate(401,261)"/>
<path d="M0 0 C0 1.98 0 3.96 0 6 C-1.98 6 -3.96 6 -6 6 C-6 5.34 -6 4.68 -6 4 C-6.66 4 -7.32 4 -8 4 C-7.835 4.556875 -7.67 5.11375 -7.5 5.6875 C-6.95958649 8.18691249 -6.92917935 10.45045662 -7 13 C-8.32 13.33 -9.64 13.66 -11 14 C-11 14.66 -11 15.32 -11 16 C-12.65 16.33 -14.3 16.66 -16 17 C-16 16.01 -16 15.02 -16 14 C-16.66 14 -17.32 14 -18 14 C-17.50866529 6.07087429 -17.50866529 6.07087429 -15.8125 2.5 C-11.54646666 -1.03051035 -5.25378798 -0.09058255 0 0 Z " fill="#FB5109" transform="translate(392,244)"/>
<path d="M0 0 C4.29 0 8.58 0 13 0 C13 0.33 13 0.66 13 1 C9.04 1 5.08 1 1 1 C1.08688729 4.75113415 1.19376778 8.49985418 1.3125 12.25 C1.33505859 13.31347656 1.35761719 14.37695312 1.38085938 15.47265625 C1.41630859 16.49746094 1.45175781 17.52226562 1.48828125 18.578125 C1.51446533 19.52075195 1.54064941 20.46337891 1.56762695 21.43457031 C2.06644916 24.39426749 3.1611926 25.68444211 5 28 C5 28.99 5 29.98 5 31 C5.66 31 6.32 31 7 31 C7 31.66 7 32.32 7 33 C7.66 33 8.32 33 9 33 C9 33.66 9 34.32 9 35 C15.93 35 22.86 35 30 35 C30 34.01 30 33.02 30 32 C31.32 32 32.64 32 34 32 C34.33 30.35 34.66 28.7 35 27 C35.66 27 36.32 27 37 27 C36.66277668 30.03500987 36.19548997 31.74658707 34.3125 34.1875 C27.87697496 39.23156016 19.7596944 38.56976777 12 38 C7.49442925 37.08504621 3.94665827 34.80109629 1.03198242 31.20263672 C-1.40789789 25.99501899 -0.49176318 19.7558933 -0.3125 14.125 C-0.28739222 12.75524892 -0.26458339 11.38545365 -0.24414062 10.015625 C-0.18535513 6.67660906 -0.09567982 3.33816245 0 0 Z " fill="#B45F42" transform="translate(194,244)"/>
<path d="M0 0 C5.8490566 1.16981132 5.8490566 1.16981132 8 4 C8 4.66 8 5.32 8 6 C8.66 5.67 9.32 5.34 10 5 C10.65555119 2.47266765 10.65555119 2.47266765 11 0 C11.99 0 12.98 0 14 0 C14.33 4.62 14.66 9.24 15 14 C13.68 14.33 12.36 14.66 11 15 C9.02 12.69 7.04 10.38 5 8 C4.67 10.31 4.34 12.62 4 15 C2.68 14.67 1.36 14.34 0 14 C0 9.38 0 4.76 0 0 Z M10 6 C11 8 11 8 11 8 Z " fill="#BFC0DB" transform="translate(259,289)"/>
<path d="M0 0 C5.12583611 -0.10251672 9.94997778 -0.03590199 15 1 C15 1.33 15 1.66 15 2 C14.21753906 2.06058594 13.43507812 2.12117188 12.62890625 2.18359375 C11.11103516 2.30927734 11.11103516 2.30927734 9.5625 2.4375 C8.55316406 2.51871094 7.54382813 2.59992188 6.50390625 2.68359375 C4.06359221 2.73211468 4.06359221 2.73211468 3 4 C2.95936168 5.66617115 2.957279 7.33388095 3 9 C3.66 8.67 4.32 8.34 5 8 C5 8.66 5 9.32 5 10 C11.9903233 11.01942215 18.94442055 11.31599923 26 11.5625 C27.15628906 11.60568359 28.31257813 11.64886719 29.50390625 11.69335938 C32.33583854 11.79867917 35.16784747 11.90081087 38 12 C37.505 8.535 37.505 8.535 37 5 C39.62386487 8.06117568 40 8.73173127 40 13 C25.48 13 10.96 13 -4 13 C-4.33 12.34 -4.66 11.68 -5 11 C-4.00390625 8.3984375 -4.00390625 8.3984375 -2.5625 5.375 C-2.08941406 4.37210937 -1.61632812 3.36921875 -1.12890625 2.3359375 C-0.75636719 1.56507813 -0.38382813 0.79421875 0 0 Z " fill="#CB7040" transform="translate(141,254)"/>
<path d="M0 0 C0.98226563 0.00644531 1.96453125 0.01289063 2.9765625 0.01953125 C5.375 0.1875 5.375 0.1875 6.375 1.1875 C6.8207809 6.20512683 6.72533491 10.63372611 4.375 15.1875 C2.38932292 15.05729167 0.40364583 14.92708333 -1.58203125 14.796875 C-3.7202336 15.03748962 -3.7202336 15.03748962 -5.34375 16.59375 C-7.31574727 20.58584203 -7.19881159 24.53938262 -7.3125 28.9375 C-7.34666016 29.82566406 -7.38082031 30.71382813 -7.41601562 31.62890625 C-7.49828714 33.81497803 -7.56750172 36.00065951 -7.625 38.1875 C-7.955 38.1875 -8.285 38.1875 -8.625 38.1875 C-8.625 30.5975 -8.625 23.0075 -8.625 15.1875 C-9.615 14.8575 -10.605 14.5275 -11.625 14.1875 C-0.46875 10.90625 -0.46875 10.90625 3.375 12.1875 C3.375 9.2175 3.375 6.2475 3.375 3.1875 C2.64796875 3.34347656 1.9209375 3.49945313 1.171875 3.66015625 C-6.36095364 5.11843462 -13.02791894 5.18428014 -20.625 4.1875 C-20.625 3.8575 -20.625 3.5275 -20.625 3.1875 C-19.37783203 3.11402344 -19.37783203 3.11402344 -18.10546875 3.0390625 C-17.01878906 2.96429688 -15.93210937 2.88953125 -14.8125 2.8125 C-13.73355469 2.74289063 -12.65460938 2.67328125 -11.54296875 2.6015625 C-7.10127145 1.97128149 -4.74846321 -0.0689091 0 0 Z " fill="#C24C2E" transform="translate(305.625,241.8125)"/>
<path d="M0 0 C6.27 0 12.54 0 19 0 C18.67 1.32 18.34 2.64 18 4 C18 3.34 18 2.68 18 2 C17.15695313 2.08378906 16.31390625 2.16757813 15.4453125 2.25390625 C14.34960938 2.35574219 13.25390625 2.45757812 12.125 2.5625 C11.03445312 2.66691406 9.94390625 2.77132812 8.8203125 2.87890625 C6 3 6 3 4 2 C3.7834375 3.11375 3.7834375 3.11375 3.5625 4.25 C3.09812508 6.52027739 2.58136431 8.75759479 2 11 C2.66 11.33 3.32 11.66 4 12 C1.625 13.5625 1.625 13.5625 -1 15 C-1.66 14.67 -2.32 14.34 -3 14 C-3.144375 14.763125 -3.28875 15.52625 -3.4375 16.3125 C-4 19 -4 19 -5 22 C-5.66 22.33 -6.32 22.66 -7 23 C-7.73075648 25.3140622 -8.40138258 27.64828869 -9 30 C-9.66 30 -10.32 30 -11 30 C-9.04878741 24.03796154 -7.0099916 18.10827464 -4.9375 12.1875 C-4.6801709 11.44636963 -4.4228418 10.70523926 -4.15771484 9.94165039 C-3.90844238 9.23258545 -3.65916992 8.52352051 -3.40234375 7.79296875 C-3.06964478 6.84200317 -3.06964478 6.84200317 -2.73022461 5.87182617 C-1.94574233 3.86091823 -0.96531479 1.93062958 0 0 Z " fill="#F05C1F" transform="translate(132,209)"/>
<path d="M0 0 C0.36122881 1.31057393 0.71380311 2.62353624 1.0625 3.9375 C1.25972656 4.66839844 1.45695312 5.39929688 1.66015625 6.15234375 C1.77230469 6.76207031 1.88445312 7.37179687 2 8 C1 9 1 9 -2.59765625 9.09765625 C-4.08596867 9.0909822 -5.57426432 9.07902183 -7.0625 9.0625 C-8.20041992 9.05573242 -8.20041992 9.05573242 -9.36132812 9.04882812 C-11.24091871 9.0370068 -13.12046899 9.01907078 -15 9 C-15.33 6.69 -15.66 4.38 -16 2 C-10.51324804 0.13216954 -5.77807024 -0.2358396 0 0 Z " fill="#E8681E" transform="translate(177,272)"/>
<path d="M0 0 C4.53460431 1.13365108 5.90024653 2.64193374 9 6 C9.33 4.02 9.66 2.04 10 0 C10.99 0 11.98 0 13 0 C13 4.62 13 9.24 13 14 C12.01 14.495 12.01 14.495 11 15 C8.66666667 12.66666667 6.33333333 10.33333333 4 8 C3.67 10.31 3.34 12.62 3 15 C1.68 14.67 0.36 14.34 -1 14 C-0.67 9.38 -0.34 4.76 0 0 Z " fill="#C2C4DF" transform="translate(365,289)"/>
<path d="M0 0 C2.1640625 0.41796875 2.1640625 0.41796875 4.7265625 2.60546875 C6.28354008 5.65172924 6.85039603 7.07209282 6.1640625 10.41796875 C4.7265625 12.73046875 4.7265625 12.73046875 2.1640625 14.41796875 C-0.90137207 14.91596354 -3.78704094 15.04122385 -6.8359375 14.41796875 C-8.9273128 12.89485133 -9.71082966 12.02633627 -10.234375 9.48046875 C-10.22664062 8.79984375 -10.21890625 8.11921875 -10.2109375 7.41796875 C-10.21867188 6.73734375 -10.22640625 6.05671875 -10.234375 5.35546875 C-9.09751167 -0.17280785 -4.7848887 -0.16365255 0 0 Z M-5.6484375 4.66796875 C-7.11668821 6.47922905 -7.11668821 6.47922905 -6.8359375 9.41796875 C-6.1759375 9.41796875 -5.5159375 9.41796875 -4.8359375 9.41796875 C-4.8359375 10.07796875 -4.8359375 10.73796875 -4.8359375 11.41796875 C-2.41947968 11.58484323 -2.41947968 11.58484323 0.1640625 11.41796875 C0.8240625 10.75796875 1.4840625 10.09796875 2.1640625 9.41796875 C1.84364853 6.81516307 1.84364853 6.81516307 1.1640625 4.41796875 C-2.40091932 3.24230677 -2.40091932 3.24230677 -5.6484375 4.66796875 Z " fill="#A2A4C6" transform="translate(245.8359375,288.58203125)"/>
<path d="M0 0 C0.33 1.32 0.66 2.64 1 4 C-1.64 4 -4.28 4 -7 4 C-7.33 5.65 -7.66 7.3 -8 9 C-7.01 9.33 -6.02 9.66 -5 10 C-5 9.01 -5 8.02 -5 7 C-3.02 7 -1.04 7 1 7 C2.04449911 10.13349732 1.93423645 10.98968256 1 14 C-8.00105708 14.61839323 -8.00105708 14.61839323 -11.625 12.375 C-13.42208081 9.27095134 -13.58890625 7.53343747 -13 4 C-9.86956329 -1.17202586 -5.41352882 -0.41642529 0 0 Z " fill="#ACB0CE" transform="translate(399,289)"/>
<path d="M0 0 C0.33 0.66 0.66 1.32 1 2 C1.99 2 2.98 2 4 2 C4.33 1.34 4.66 0.68 5 0 C5.33 1.65 5.66 3.3 6 5 C4.02 5.99 4.02 5.99 2 7 C2 8.98 2 10.96 2 13 C2.66 13 3.32 13 4 13 C4 14.32 4 15.64 4 17 C4.66 17 5.32 17 6 17 C6.33 18.32 6.66 19.64 7 21 C8.98 21.33 10.96 21.66 13 22 C12.360625 22.309375 11.72125 22.61875 11.0625 22.9375 C9.06389179 23.8345163 9.06389179 23.8345163 8 25 C5.98035801 25.07244053 3.95832876 25.08377188 1.9375 25.0625 C0.83277344 25.05347656 -0.27195313 25.04445312 -1.41015625 25.03515625 C-2.69212891 25.01775391 -2.69212891 25.01775391 -4 25 C-4 24.67 -4 24.34 -4 24 C-1.36 24 1.28 24 4 24 C3.48308594 22.84242188 2.96617187 21.68484375 2.43359375 20.4921875 C1.76744009 18.95346637 1.10211915 17.41438455 0.4375 15.875 C0.09525391 15.11445313 -0.24699219 14.35390625 -0.59960938 13.5703125 C-2.53354402 9.03826364 -3.6401194 5.89747281 -2 1 C-1.34 0.67 -0.68 0.34 0 0 Z " fill="#AC300B" transform="translate(145,229)"/>
<path d="M0 0 C6.6 0 13.2 0 20 0 C21.5921111 3.80578237 23.17937236 7.61304707 24.75463867 11.42578125 C25.29221009 12.72284085 25.83256677 14.01874967 26.37573242 15.31347656 C27.15490104 17.17209613 27.92332064 19.03521048 28.69140625 20.8984375 C29.15748291 22.01911621 29.62355957 23.13979492 30.10375977 24.29443359 C31 27 31 27 30 29 C27.43135272 27.71567636 27.053461 26.63365249 26 24 C26 22.68 26 21.36 26 20 C25.34 20 24.68 20 24 20 C23.71125 18.88625 23.4225 17.7725 23.125 16.625 C22.30758671 12.99708908 22.30758671 12.99708908 20 11 C20 10.01 20 9.02 20 8 C19.34 8 18.68 8 18 8 C18 8.99 18 9.98 18 11 C17.01 11.33 16.02 11.66 15 12 C15.99 8.37 16.98 4.74 18 1 C12.06 1 6.12 1 0 1 C0 0.67 0 0.34 0 0 Z " fill="#92302C" transform="translate(133,208)"/>
<path d="M0 0 C0.99 0 1.98 0 3 0 C3.33 3.3 3.66 6.6 4 10 C5.32 10 6.64 10 8 10 C8.33 6.7 8.66 3.4 9 0 C10.32 0 11.64 0 13 0 C13.3690205 9.41002278 13.3690205 9.41002278 11 14 C9.54207116 14.05399736 8.08357288 14.09279177 6.625 14.125 C5.81289063 14.14820313 5.00078125 14.17140625 4.1640625 14.1953125 C2 14 2 14 0 12 C-0.1953125 9.1796875 -0.1953125 9.1796875 -0.125 5.875 C-0.10695313 4.77929688 -0.08890625 3.68359375 -0.0703125 2.5546875 C-0.04710937 1.71164062 -0.02390625 0.86859375 0 0 Z " fill="#A4A7C7" transform="translate(298,289)"/>
<path d="M0 0 C2.27077413 0.00716333 4.47155396 0.12261921 6.7265625 0.3828125 C7.0565625 1.7028125 7.3865625 3.0228125 7.7265625 4.3828125 C4.7565625 4.3828125 1.7865625 4.3828125 -1.2734375 4.3828125 C-0.6134375 6.3628125 0.0465625 8.3428125 0.7265625 10.3828125 C3.0365625 10.3828125 5.3465625 10.3828125 7.7265625 10.3828125 C7.7265625 11.7028125 7.7265625 13.0228125 7.7265625 14.3828125 C6.1238843 14.49106093 4.51910502 14.56851895 2.9140625 14.6328125 C2.02074219 14.67921875 1.12742188 14.725625 0.20703125 14.7734375 C-2.2734375 14.3828125 -2.2734375 14.3828125 -4.0390625 12.484375 C-6.20230287 8.80138981 -6.20230287 8.80138981 -6.2734375 6.3828125 C-3.84708201 0.64779044 -3.84708201 0.64779044 0 0 Z " fill="#A4A7CA" transform="translate(220.2734375,288.6171875)"/>
<path d="M0 0 C0.99773437 0.02320313 1.99546875 0.04640625 3.0234375 0.0703125 C4.52777344 0.09738281 4.52777344 0.09738281 6.0625 0.125 C6.83335937 0.14820313 7.60421875 0.17140625 8.3984375 0.1953125 C8.7284375 0.8553125 9.0584375 1.5153125 9.3984375 2.1953125 C3.4584375 2.6903125 3.4584375 2.6903125 -2.6015625 3.1953125 C-2.68271076 6.90408834 -2.74213844 10.61107761 -2.7890625 14.3203125 C-2.81419922 15.36703125 -2.83933594 16.41375 -2.86523438 17.4921875 C-2.91973585 23.23300928 -2.73059414 27.18557681 0.3984375 32.1953125 C0.3984375 32.8553125 0.3984375 33.5153125 0.3984375 34.1953125 C3.3684375 35.1853125 6.3384375 36.1753125 9.3984375 37.1953125 C9.3984375 37.8553125 9.3984375 38.5153125 9.3984375 39.1953125 C13.6884375 39.1953125 17.9784375 39.1953125 22.3984375 39.1953125 C22.3984375 39.5253125 22.3984375 39.8553125 22.3984375 40.1953125 C5.24288082 41.07383318 5.24288082 41.07383318 -0.6015625 36.1953125 C-5.69967681 29.78676739 -5.13559628 23.30520592 -4.9765625 15.3828125 C-4.97527344 14.14337891 -4.97398437 12.90394531 -4.97265625 11.62695312 C-4.86194355 0.36501078 -4.86194355 0.36501078 0 0 Z " fill="#974435" transform="translate(324.6015625,241.8046875)"/>
<path d="M0 0 C0.495 1.485 0.495 1.485 1 3 C0.34 3.33 -0.32 3.66 -1 4 C-1.99 3.505 -1.99 3.505 -3 3 C-5.95894219 2.87709498 -8.89584209 2.81422034 -11.85595703 2.79467773 C-12.77308472 2.78477814 -13.6902124 2.77487854 -14.63513184 2.76467896 C-17.67599885 2.73301285 -20.71688151 2.70828634 -23.7578125 2.68359375 C-25.86246148 2.66302864 -27.96710629 2.64203229 -30.07174683 2.62062073 C-35.61851631 2.56535435 -41.16532334 2.51596522 -46.7121582 2.46777344 C-52.36933749 2.41759172 -58.02646207 2.3618883 -63.68359375 2.30664062 C-74.78901579 2.19900321 -85.89448528 2.09757066 -97 2 C-97 1.67 -97 1.34 -97 1 C-48.985 0.505 -48.985 0.505 0 0 Z " fill="#EBF1FF" transform="translate(203,295)"/>
<path d="M0 0 C1.134375 0.020625 2.26875 0.04125 3.4375 0.0625 C3.7675 1.3825 4.0975 2.7025 4.4375 4.0625 C2.7875 3.7325 1.1375 3.4025 -0.5625 3.0625 C-0.5625 3.7225 -0.5625 4.3825 -0.5625 5.0625 C1.9125 6.0525 1.9125 6.0525 4.4375 7.0625 C4.48004356 9.06204746 4.47830783 11.06291636 4.4375 13.0625 C3.4375 14.0625 3.4375 14.0625 -0.125 14.125 C-1.259375 14.104375 -2.39375 14.08375 -3.5625 14.0625 C-3.8925 12.4125 -4.2225 10.7625 -4.5625 9.0625 C-3.2425 9.0625 -1.9225 9.0625 -0.5625 9.0625 C-1.5525 8.4746875 -1.5525 8.4746875 -2.5625 7.875 C-4.5625 6.0625 -4.5625 6.0625 -4.875 3.4375 C-4.37298113 -0.3778434 -4.04860926 0.07102823 0 0 Z " fill="#A4A6C9" transform="translate(285.5625,288.9375)"/>
<path d="M0 0 C0.66 0 1.32 0 2 0 C1.4366924 5.11996822 0.24302091 9.59527497 -1.65234375 14.39453125 C-1.91253799 15.06796066 -2.17273224 15.74139008 -2.44081116 16.43522644 C-2.98780023 17.84582643 -3.53842363 19.25502211 -4.0925293 20.6628418 C-4.94060063 22.8203882 -5.77476543 24.98294864 -6.60742188 27.14648438 C-7.14241688 28.52114974 -7.67819644 29.89551008 -8.21484375 31.26953125 C-8.46386948 31.91533646 -8.7128952 32.56114166 -8.96946716 33.22651672 C-10.05921992 35.97722679 -10.88366202 37.88366202 -13 40 C-13.09765625 33.84765625 -13.09765625 33.84765625 -13 32 C-12.67 31.67 -12.34 31.34 -12 31 C-11.63239269 28.67182036 -11.29758419 26.3381615 -11 24 C-9.68 24 -8.36 24 -7 24 C-6.9175 23.030625 -6.835 22.06125 -6.75 21.0625 C-6.19854127 17.09839087 -4.68676822 13.88367855 -2.98828125 10.2890625 C-1.53866755 6.93145922 -0.77846181 3.56794997 0 0 Z " fill="#A74E3E" transform="translate(140,234)"/>
<path d="M0 0 C2.37160148 2.37160148 2.31983352 3.00621122 2.375 6.25 C2.22147035 12.2280606 -0.22778776 15.2732291 -4.4375 19.375 C-10.35229877 22.07297839 -17.13654965 22.10114627 -23.3984375 20.31640625 C-25.3125 19.5 -25.3125 19.5 -28 18 C-24.98968256 17.06576355 -24.13349732 16.95550089 -21 18 C-18.26134713 18.07051114 -15.54972412 18.09357765 -12.8125 18.0625 C-12.06291016 18.05798828 -11.31332031 18.05347656 -10.54101562 18.04882812 C-8.69397617 18.03706354 -6.84697787 18.01912865 -5 18 C-4.34 16.68 -3.68 15.36 -3 14 C-2.34 14 -1.68 14 -1 14 C-0.67 9.38 -0.34 4.76 0 0 Z " fill="#8D403A" transform="translate(401,261)"/>
<path d="M0 0 C1.95803507 -0.05389087 3.91648909 -0.09274217 5.875 -0.125 C7.51082031 -0.15980469 7.51082031 -0.15980469 9.1796875 -0.1953125 C12 0 12 0 14 2 C14.4622022 6.4194747 14.32396313 10.87168324 14.3125 15.3125 C14.32861328 16.54935547 14.34472656 17.78621094 14.36132812 19.06054688 C14.36229492 20.85008789 14.36229492 20.85008789 14.36328125 22.67578125 C14.36626221 23.76802002 14.36924316 24.86025879 14.37231445 25.9855957 C13.73820631 31.11958469 10.93819175 34.75678326 7 38 C4.25 38.75 4.25 38.75 2 39 C2 38.34 2 37.68 2 37 C3.32 37 4.64 37 6 37 C6.33 36.01 6.66 35.02 7 34 C7.66 34 8.32 34 9 34 C9 33.34 9 32.68 9 32 C9.66 32 10.32 32 11 32 C12.30433619 26.06372979 12.11086318 20.16667748 12.0625 14.125 C12.05798828 13.05507812 12.05347656 11.98515625 12.04882812 10.8828125 C12.03709764 8.25518411 12.01916391 5.62758469 12 3 C7.71 2.67 3.42 2.34 -1 2 C-0.67 1.34 -0.34 0.68 0 0 Z " fill="#953F37" transform="translate(346,242)"/>
<path d="M0 0 C0.33 0 0.66 0 1 0 C1.34765045 5.02934324 0.16471447 8.77397331 -1.8125 13.3125 C-2.36525215 14.63198859 -2.91604148 15.95230119 -3.46484375 17.2734375 C-3.73022949 17.90862305 -3.99561523 18.54380859 -4.26904297 19.19824219 C-5.7051848 22.73823106 -6.85026022 26.35915736 -8 30 C-8.66 30 -9.32 30 -10 30 C-10.33 31.98 -10.66 33.96 -11 36 C-11.66 35.67 -12.32 35.34 -13 35 C-10.95433828 28.7449959 -8.78009519 22.54818348 -6.5 16.375 C-6.20480469 15.56804687 -5.90960938 14.76109375 -5.60546875 13.9296875 C-3.87012936 9.22057269 -2.02002562 4.59432655 0 0 Z " fill="#A75A3F" transform="translate(120,239)"/>
<path d="M0 0 C4.29 0 8.58 0 13 0 C13 0.99 13 1.98 13 3 C11.35 3 9.7 3 8 3 C8.33 6.63 8.66 10.26 9 14 C7.68 14.33 6.36 14.66 5 15 C5 11.04 5 7.08 5 3 C3.35 3 1.7 3 0 3 C0 2.01 0 1.02 0 0 Z " fill="#B5B8D7" transform="translate(332,289)"/>
<path d="M0 0 C6.6 0 13.2 0 20 0 C20 0.99 20 1.98 20 3 C14.39 3 8.78 3 3 3 C3.66 5.31 4.32 7.62 5 10 C4.625 12.4375 4.625 12.4375 4 14 C3.32471777 12.42032193 2.66010306 10.83608097 2 9.25 C1.62875 8.36828125 1.2575 7.4865625 0.875 6.578125 C0 4 0 4 0 0 Z " fill="#772104" transform="translate(156,267)"/>
<path d="M0 0 C0.99 0.495 0.99 0.495 2 1 C2.33 8.26 2.66 15.52 3 23 C8.47825081 23.4472136 8.47825081 23.4472136 11 22 C10.01 24.475 10.01 24.475 9 27 C7.35 27 5.7 27 4 27 C4 26.34 4 25.68 4 25 C2.68 24.67 1.36 24.34 0 24 C0 16.08 0 8.16 0 0 Z " fill="#A2362A" transform="translate(334,244)"/>
<path d="M0 0 C0.99 0 1.98 0 3 0 C3 3.63 3 7.26 3 11 C4.98 11 6.96 11 9 11 C9 12.32 9 13.64 9 15 C6.03 15 3.06 15 0 15 C0 10.05 0 5.1 0 0 Z " fill="#989AC1" transform="translate(319,289)"/>
<path d="M0 0 C4.29 0 8.58 0 13 0 C13 0.33 13 0.66 13 1 C9.04 1 5.08 1 1 1 C1.08688729 4.75113415 1.19376778 8.49985418 1.3125 12.25 C1.33505859 13.31347656 1.35761719 14.37695312 1.38085938 15.47265625 C1.41630859 16.49746094 1.45175781 17.52226562 1.48828125 18.578125 C1.51446533 19.52075195 1.54064941 20.46337891 1.56762695 21.43457031 C2.06644916 24.39426749 3.1611926 25.68444211 5 28 C5 28.99 5 29.98 5 31 C5.66 31 6.32 31 7 31 C7 31.66 7 32.32 7 33 C4.97954558 32.39816251 2.97888961 31.72693904 1 31 C-0.43509221 28.12981559 -0.11158506 25.66456277 -0.09765625 22.4609375 C-0.09443359 21.15898437 -0.09121094 19.85703125 -0.08789062 18.515625 C-0.07953466 17.13541601 -0.07106971 15.75520768 -0.0625 14.375 C-0.05748501 12.98698074 -0.0529221 11.59895978 -0.04882812 10.2109375 C-0.03700985 6.80727327 -0.0190739 3.4036313 0 0 Z " fill="#C85135" transform="translate(194,244)"/>
<path d="M0 0 C0.33 0 0.66 0 1 0 C1.12375 1.134375 1.2475 2.26875 1.375 3.4375 C1.58125 4.613125 1.7875 5.78875 2 7 C2.66 7.33 3.32 7.66 4 8 C1.625 9.5625 1.625 9.5625 -1 11 C-1.66 10.67 -2.32 10.34 -3 10 C-3.144375 10.763125 -3.28875 11.52625 -3.4375 12.3125 C-4 15 -4 15 -5 18 C-5.66 18.33 -6.32 18.66 -7 19 C-7.73075648 21.3140622 -8.40138258 23.64828869 -9 26 C-9.66 26 -10.32 26 -11 26 C-10.01872187 22.99353083 -9.01396492 19.995595 -8 17 C-7.74863281 16.23816406 -7.49726562 15.47632813 -7.23828125 14.69140625 C-5.34412291 9.22941527 -5.34412291 9.22941527 -2 7 C-0.7811879 3.44327821 -0.7811879 3.44327821 0 0 Z " fill="#F25E1E" transform="translate(132,213)"/>
<path d="M0 0 C1.63814448 2.45721672 2.61952199 4.34567811 3.625 7.0625 C3.88539063 7.75472656 4.14578125 8.44695312 4.4140625 9.16015625 C5 11 5 11 5 13 C5.763125 13.268125 6.52625 13.53625 7.3125 13.8125 C9.93603434 14.9717361 11.27119728 15.75255646 13 18 C13.6875 20.1875 13.6875 20.1875 14 22 C13.34 22 12.68 22 12 22 C11.34 21.01 10.68 20.02 10 19 C7.58392583 18.20201782 7.58392583 18.20201782 4.875 17.8125 C3.50988281 17.57466797 3.50988281 17.57466797 2.1171875 17.33203125 C1.06917969 17.16767578 1.06917969 17.16767578 0 17 C1.32 16.34 2.64 15.68 4 15 C3.525625 14.195625 3.05125 13.39125 2.5625 12.5625 C0.70640382 8.33060071 0.29440022 4.56827922 0 0 Z " fill="#A63F23" transform="translate(164,237)"/>
<path d="M0 0 C0.99 0 1.98 0 3 0 C3.33 4.62 3.66 9.24 4 14 C2.68 14.33 1.36 14.66 0 15 C-3 11.375 -3 11.375 -3 8 C-2.01 8 -1.02 8 0 8 C-0.33 7.01 -0.66 6.02 -1 5 C-0.5625 2.3125 -0.5625 2.3125 0 0 Z " fill="#C2C3E5" transform="translate(270,289)"/>
<path d="M0 0 C1.32 0 2.64 0 4 0 C4 4.95 4 9.9 4 15 C2.68 14.67 1.36 14.34 0 14 C0 9.38 0 4.76 0 0 Z " fill="#9695B7" transform="translate(352,289)"/>
<path d="M0 0 C0.66 0 1.32 0 2 0 C2 0.66 2 1.32 2 2 C2.66 2 3.32 2 4 2 C4 3.32 4 4.64 4 6 C4.66 6 5.32 6 6 6 C6.33 7.32 6.66 8.64 7 10 C9.97 10.495 9.97 10.495 13 11 C12.360625 11.309375 11.72125 11.61875 11.0625 11.9375 C9.06389179 12.8345163 9.06389179 12.8345163 8 14 C5.98035801 14.07244053 3.95832876 14.08377188 1.9375 14.0625 C0.83277344 14.05347656 -0.27195313 14.04445312 -1.41015625 14.03515625 C-2.69212891 14.01775391 -2.69212891 14.01775391 -4 14 C-4 13.67 -4 13.34 -4 13 C-1.36 13 1.28 13 4 13 C3.71125 12.31292969 3.4225 11.62585938 3.125 10.91796875 C2.75375 10.01691406 2.3825 9.11585938 2 8.1875 C1.62875 7.29417969 1.2575 6.40085938 0.875 5.48046875 C0 3 0 3 0 0 Z " fill="#7B3122" transform="translate(145,240)"/>
<path d="M0 0 C0.78117188 0.47566406 0.78117188 0.47566406 1.578125 0.9609375 C4.67408709 2.28920511 7.39404121 2.42364247 10.75 2.625 C12.50570312 2.73714844 12.50570312 2.73714844 14.296875 2.8515625 C15.18890625 2.90054688 16.0809375 2.94953125 17 3 C17 3.66 17 4.32 17 5 C13.65060119 7.02558881 11.13037449 7.21738987 7.25 7.125 C6.26515625 7.10695312 5.2803125 7.08890625 4.265625 7.0703125 C3.14414063 7.03550781 3.14414063 7.03550781 2 7 C2.33 6.34 2.66 5.68 3 5 C2.01 4.34 1.02 3.68 0 3 C0 2.01 0 1.02 0 0 Z " fill="#A22F02" transform="translate(151,247)"/>
<path d="M0 0 C2.41176702 0.75071102 3.9043408 1.56297655 6 3 C6 4.65 6 6.3 6 8 C5.01 8.495 5.01 8.495 4 9 C4 7.02 4 5.04 4 3 C-2.93 3 -9.86 3 -17 3 C-11.43920789 -1.17059408 -6.7585569 -0.65324342 0 0 Z " fill="#AD453C" transform="translate(395,242)"/>
<path d="M0 0 C0 0.99 0 1.98 0 3 C-1.98567708 2.86979167 -3.97135417 2.73958333 -5.95703125 2.609375 C-8.0952336 2.84998962 -8.0952336 2.84998962 -9.71875 4.40625 C-11.69074727 8.39834203 -11.57381159 12.35188262 -11.6875 16.75 C-11.72166016 17.63816406 -11.75582031 18.52632813 -11.79101562 19.44140625 C-11.87328714 21.62747803 -11.94250172 23.81315951 -12 26 C-12.33 26 -12.66 26 -13 26 C-13 18.41 -13 10.82 -13 3 C-13.99 2.67 -14.98 2.34 -16 2 C-10.72 1.34 -5.44 0.68 0 0 Z " fill="#983C30" transform="translate(310,254)"/>
<path d="M0 0 C1.2077558 3.62326739 0.54311128 4.64146369 -1 8 C-0.34 8 0.32 8 1 8 C1.33 8.66 1.66 9.32 2 10 C4.52733235 10.65555119 4.52733235 10.65555119 7 11 C7 11.33 7 11.66 7 12 C5.54207116 12.05399736 4.08357288 12.09279177 2.625 12.125 C1.81289062 12.14820313 1.00078125 12.17140625 0.1640625 12.1953125 C-2 12 -2 12 -4 10 C-4.26991906 7.31160615 -4.08737357 4.70858064 -4 2 C-2.68 1.34 -1.36 0.68 0 0 Z " fill="#B7BBCB" transform="translate(240,290)"/>
<path d="M0 0 C1.98 0 3.96 0 6 0 C7 3 7 3 6 7 C2.7 7 -0.6 7 -4 7 C-4 6.34 -4 5.68 -4 5 C-2.68 4.67 -1.36 4.34 0 4 C0 2.68 0 1.36 0 0 Z " fill="#D7DFEE" transform="translate(394,296)"/>
<path d="M0 0 C0.33 0.66 0.66 1.32 1 2 C0.0625 4.125 0.0625 4.125 -1 6 C0.32 7.32 1.64 8.64 3 10 C2.01 10 1.02 10 0 10 C0 9.34 0 8.68 0 8 C-1.65 8 -3.3 8 -5 8 C-5.33 7.01 -5.66 6.02 -6 5 C-7.65 4.67 -9.3 4.34 -11 4 C-11 3.34 -11 2.68 -11 2 C-4.375 1.875 -4.375 1.875 -1 3 C-0.67 2.01 -0.34 1.02 0 0 Z " fill="#8B3334" transform="translate(398,251)"/>
<path d="M0 0 C0.99 0 1.98 0 3 0 C3 4.62 3 9.24 3 14 C2.01 14.495 2.01 14.495 1 15 C0.01 14.01 -0.98 13.02 -2 12 C-1.34 11.67 -0.68 11.34 0 11 C0 11.66 0 12.32 0 13 C0.66 13 1.32 13 2 13 C0.18705073 10.2805761 -1.66475218 8.25740623 -4 6 C-3.67 5.34 -3.34 4.68 -3 4 C-2.34 4.66 -1.68 5.32 -1 6 C-0.67 4.02 -0.34 2.04 0 0 Z " fill="#8E90B5" transform="translate(375,289)"/>
<path d="M0 0 C0.99 0.33 1.98 0.66 3 1 C2.34 1.66 1.68 2.32 1 3 C0.09592428 5.77021345 -0.17139535 8.42790704 -0.31640625 11.328125 C-0.35830078 12.12734375 -0.40019531 12.9265625 -0.44335938 13.75 C-0.50233398 14.9875 -0.50233398 14.9875 -0.5625 16.25 C-0.60568359 17.09046875 -0.64886719 17.9309375 -0.69335938 18.796875 C-0.79908543 20.86440671 -0.90001295 22.93218281 -1 25 C-5.62 25 -10.24 25 -15 25 C-15 24.67 -15 24.34 -15 24 C-10.71 24 -6.42 24 -2 24 C-2.02320313 22.51886719 -2.04640625 21.03773438 -2.0703125 19.51171875 C-2.08907 17.57031753 -2.10727022 15.62891087 -2.125 13.6875 C-2.14175781 12.71103516 -2.15851563 11.73457031 -2.17578125 10.72851562 C-2.18222656 9.79072266 -2.18867188 8.85292969 -2.1953125 7.88671875 C-2.20578613 7.02264404 -2.21625977 6.15856934 -2.22705078 5.26831055 C-2 3 -2 3 0 0 Z " fill="#9B4341" transform="translate(261,256)"/>
<path d="M0 0 C2.93730605 0.4781661 5.8473311 0.96530252 8.75 1.625 C11.02757055 2.23128627 11.02757055 2.23128627 13 1 C13 1.99 13 2.98 13 4 C11.56208484 3.85831863 10.1246763 3.71148957 8.6875 3.5625 C7.88699219 3.48128906 7.08648437 3.40007812 6.26171875 3.31640625 C4 3 4 3 1 2 C0.01 5.3 -0.98 8.6 -2 12 C-2.66 12 -3.32 12 -4 12 C-4.65234375 10.265625 -4.65234375 10.265625 -5 8 C-4.00390625 5.859375 -4.00390625 5.859375 -2.5625 3.75 C-2.08941406 3.04359375 -1.61632812 2.3371875 -1.12890625 1.609375 C-0.75636719 1.07828125 -0.38382812 0.5471875 0 0 Z " fill="#9B463B" transform="translate(375,266)"/>
<path d="M0 0 C0.99 0 1.98 0 3 0 C3 3.96 3 7.92 3 12 C5.31 12 7.62 12 10 12 C10 12.33 10 12.66 10 13 C8.52093108 13.02689216 7.04172517 13.04634621 5.5625 13.0625 C4.32693359 13.07990234 4.32693359 13.07990234 3.06640625 13.09765625 C1 13 1 13 0 12 C-0.07244053 9.98035801 -0.08377188 7.95832876 -0.0625 5.9375 C-0.05347656 4.83277344 -0.04445313 3.72804688 -0.03515625 2.58984375 C-0.02355469 1.73519531 -0.01195312 0.88054687 0 0 Z " fill="#CED2E9" transform="translate(298,289)"/>
<path d="M0 0 C0.93423645 3.01031744 1.04449911 3.86650268 0 7 C5.94 6.67 11.88 6.34 18 6 C18.33 4.35 18.66 2.7 19 1 C19.66 1 20.32 1 21 1 C19.125 6.875 19.125 6.875 18 8 C16.58429877 8.08651611 15.164405 8.10704904 13.74609375 8.09765625 C12.89208984 8.09443359 12.03808594 8.09121094 11.15820312 8.08789062 C10.26037109 8.07951172 9.36253906 8.07113281 8.4375 8.0625 C7.53580078 8.05798828 6.63410156 8.05347656 5.70507812 8.04882812 C3.46998686 8.03700225 1.23502563 8.0205222 -1 8 C-2.2077558 4.37673261 -1.54311128 3.35853631 0 0 Z " fill="#A66655" transform="translate(106,274)"/>
<path d="M0 0 C6.6 0 13.2 0 20 0 C20 2.64 20 5.28 20 8 C19.34 8 18.68 8 18 8 C18 8.99 18 9.98 18 11 C17.01 11.33 16.02 11.66 15 12 C15.99 8.37 16.98 4.74 18 1 C12.06 1 6.12 1 0 1 C0 0.67 0 0.34 0 0 Z " fill="#A5321B" transform="translate(133,208)"/>
<path d="M0 0 C0.66 0 1.32 0 2 0 C2.99 1.98 3.98 3.96 5 6 C2.41210938 7.07421875 2.41210938 7.07421875 -0.17578125 8.1484375 C-2.26533932 9.06806692 -2.26533932 9.06806692 -5 11 C-4.75 8.125 -4.75 8.125 -4 5 C-1.9375 3.625 -1.9375 3.625 0 3 C0 2.01 0 1.02 0 0 Z " fill="#BB3002" transform="translate(151,216)"/>
<path d="M0 0 C1.65 0 3.3 0 5 0 C4.46148032 5.27749285 3.22656164 9.25645564 1 14 C-0.58877287 10.82245425 0 7.50617078 0 4 C-0.33 3.34 -0.66 2.68 -1 2 C-0.67 1.34 -0.34 0.68 0 0 Z " fill="#F54F0F" transform="translate(145,211)"/>
<path d="M0 0 C0.495 1.485 0.495 1.485 1 3 C0.34 3.33 -0.32 3.66 -1 4 C-1.66 3.67 -2.32 3.34 -3 3 C-5.40560273 2.84391977 -7.78702772 2.74195542 -10.1953125 2.68359375 C-10.90275604 2.66281265 -11.61019958 2.64203156 -12.33908081 2.62062073 C-14.60095425 2.55518922 -16.86294462 2.49627026 -19.125 2.4375 C-20.65756422 2.39430867 -22.19011657 2.35069418 -23.72265625 2.30664062 C-27.48165073 2.19951445 -31.24076292 2.0982291 -35 2 C-35 1.67 -35 1.34 -35 1 C-17.675 0.505 -17.675 0.505 0 0 Z " fill="#DEE4F3" transform="translate(203,295)"/>
<path d="M0 0 C2.28953489 2.28953489 2.52413358 3.45515205 3.1875 6.5625 C3.45626953 7.77099609 3.45626953 7.77099609 3.73046875 9.00390625 C3.81941406 9.66261719 3.90835938 10.32132812 4 11 C3 12 3 12 1.14233398 12.11352539 C0.35157471 12.10828857 -0.43918457 12.10305176 -1.25390625 12.09765625 C-2.10791016 12.09443359 -2.96191406 12.09121094 -3.84179688 12.08789062 C-4.73962891 12.07951172 -5.63746094 12.07113281 -6.5625 12.0625 C-7.46419922 12.05798828 -8.36589844 12.05347656 -9.29492188 12.04882812 C-11.53001314 12.03700225 -13.76497437 12.0205222 -16 12 C-15.67 10.68 -15.34 9.36 -15 8 C-15 8.99 -15 9.98 -15 11 C-7.08 10.505 -7.08 10.505 1 10 C0.505 5.05 0.505 5.05 0 0 Z " fill="#9A5149" transform="translate(177,270)"/>
<path d="M0 0 C0 0.66 0 1.32 0 2 C-5.48675196 3.86783046 -10.22192976 4.2358396 -16 4 C-16 3.34 -16 2.68 -16 2 C-10.51324804 0.13216954 -5.77807024 -0.2358396 0 0 Z " fill="#DA560B" transform="translate(177,272)"/>
<path d="M0 0 C0.99 0 1.98 0 3 0 C2.6083965 5.95507399 1.62875405 10.62819824 -1 16 C-1.33 16 -1.66 16 -2 16 C-2.09765625 9.84765625 -2.09765625 9.84765625 -2 8 C-1.67 7.67 -1.34 7.34 -1 7 C-0.63239269 4.67182036 -0.29758419 2.3381615 0 0 Z " fill="#C76238" transform="translate(129,258)"/>
<path d="M0 0 C2 2 2 2 2.125 4.625 C2.08375 5.40875 2.0425 6.1925 2 7 C1.01 7.33 0.02 7.66 -1 8 C-1 8.66 -1 9.32 -1 10 C1.97 10.495 1.97 10.495 5 11 C5 11.33 5 11.66 5 12 C2.03 12 -0.94 12 -4 12 C-3.25 5.375 -3.25 5.375 -1 2 C-0.67 1.34 -0.34 0.68 0 0 Z " fill="#F28A32" transform="translate(110,269)"/>
<path d="M0 0 C0.9075 0.165 1.815 0.33 2.75 0.5 C8.13782475 1.28873311 13.56912556 1.08025923 19 1 C19 1.66 19 2.32 19 3 C14.8437345 5.07813275 9.15753473 4.65449025 4.78515625 3.328125 C3.15770062 2.62256141 1.57264054 1.82050811 0 1 C0 0.67 0 0.34 0 0 Z " fill="#C86442" transform="translate(373,278)"/>
<path d="M0 0 C2.97 0 5.94 0 9 0 C9.33 1.32 9.66 2.64 10 4 C6.37 4 2.74 4 -1 4 C-0.67 2.68 -0.34 1.36 0 0 Z " fill="#AEB1D4" transform="translate(218,289)"/>
<path d="M0 0 C0 0.66 0 1.32 0 2 C0.66 2 1.32 2 2 2 C2 2.66 2 3.32 2 4 C-2.29 4 -6.58 4 -11 4 C-10.67 3.01 -10.34 2.02 -10 1 C-6.56484998 0.37542727 -3.50935186 0 0 0 Z " fill="#F96A18" transform="translate(177,276)"/>
<path d="M0 0 C0.66 0 1.32 0 2 0 C1.69320313 0.56203125 1.38640625 1.1240625 1.0703125 1.703125 C-0.02957585 4.06346934 -0.60095851 6.20465562 -1.125 8.75 C-1.29257812 9.54921875 -1.46015625 10.3484375 -1.6328125 11.171875 C-1.75398438 11.77515625 -1.87515625 12.3784375 -2 13 C-1.34 13 -0.68 13 0 13 C0.99 15.31 1.98 17.62 3 20 C0.53199953 18.84826645 -1.04783565 17.95216435 -3 16 C-3.61561454 11.03510874 -3.61491588 6.4254868 -1.625 1.8125 C-1.08875 1.214375 -0.5525 0.61625 0 0 Z " fill="#943F3B" transform="translate(376,245)"/>
<path d="M0 0 C1.32 0.33 2.64 0.66 4 1 C4.33730842 2.43657245 4.66969591 3.87430093 5 5.3125 C5.185625 6.11300781 5.37125 6.91351563 5.5625 7.73828125 C6 10 6 10 6 13 C4.0625 12.3125 4.0625 12.3125 2 11 C1.13970066 8.20402714 1 5.92828926 1 3 C0.67 2.01 0.34 1.02 0 0 Z " fill="#DA4E1A" transform="translate(160,236)"/>
<path d="M0 0 C1.134375 0.020625 2.26875 0.04125 3.4375 0.0625 C3.7675 1.3825 4.0975 2.7025 4.4375 4.0625 C2.7875 3.7325 1.1375 3.4025 -0.5625 3.0625 C-1.2225 4.3825 -1.8825 5.7025 -2.5625 7.0625 C-3.2225 6.7325 -3.8825 6.4025 -4.5625 6.0625 C-4.605221 4.39638095 -4.60313832 2.72867115 -4.5625 1.0625 C-3.5625 0.0625 -3.5625 0.0625 0 0 Z " fill="#9DA0C0" transform="translate(285.5625,288.9375)"/>
<path d="M0 0 C0.33 0 0.66 0 1 0 C1.34538204 3.10843835 1.23301458 4.62515045 -0.4375 7.3125 C-4.19233777 9.78519805 -7.62751253 9.33634519 -12 9 C-10.12806808 6.9916299 -9.04928837 6.01923449 -6.4375 5 C-3.68761678 4.13727591 -3.68761678 4.13727591 -2 1 C-2 1.99 -2 2.98 -2 4 C-1.34 4 -0.68 4 0 4 C0 2.68 0 1.36 0 0 Z " fill="#9294BD" transform="translate(251,294)"/>
<path d="M0 0 C-1.32 0.33 -2.64 0.66 -4 1 C-4 1.66 -4 2.32 -4 3 C-8.62 3 -13.24 3 -18 3 C-18 2.34 -18 1.68 -18 1 C-16.12528812 0.83012319 -14.25021305 0.66425224 -12.375 0.5 C-11.33085937 0.4071875 -10.28671875 0.314375 -9.2109375 0.21875 C-6.12853212 0.00875645 -3.08834771 -0.03709727 0 0 Z " fill="#ED7632" transform="translate(352,278)"/>
<path d="M0 0 C0.66 0 1.32 0 2 0 C1.6567585 3.08917348 1.17806461 4.77105979 -0.75 7.25 C-3.26415686 9.20545534 -4.83034284 9.83317594 -8 10 C-8.66 9.34 -9.32 8.68 -10 8 C-8.35 8 -6.7 8 -5 8 C-5 7.01 -5 6.02 -5 5 C-3.68 5 -2.36 5 -1 5 C-0.67 3.35 -0.34 1.7 0 0 Z " fill="#CB683D" transform="translate(229,271)"/>
<path d="M0 0 C0.66 0 1.32 0 2 0 C1.34 2.64 0.68 5.28 0 8 C-0.66 8 -1.32 8 -2 8 C-2 8.66 -2 9.32 -2 10 C-2.99 10.66 -3.98 11.32 -5 12 C-5.99 11.67 -6.98 11.34 -8 11 C-6.63016497 7.83884224 -6.0109362 7.0072908 -3 5 C-2.484375 4.13375 -1.96875 3.2675 -1.4375 2.375 C-0.963125 1.59125 -0.48875 0.8075 0 0 Z " fill="#F56718" transform="translate(357,266)"/>
<path d="M0 0 C1.32 0.66 2.64 1.32 4 2 C3.2884375 2.556875 3.2884375 2.556875 2.5625 3.125 C0.47794198 5.62646962 0.35378509 7.81593418 0 11 C-1.32 11.33 -2.64 11.66 -4 12 C-3.34 8.7 -2.68 5.4 -2 2 C-1.34 2 -0.68 2 0 2 C0 1.34 0 0.68 0 0 Z " fill="#F67122" transform="translate(123,237)"/>
<path d="M0 0 C1.60031344 3.20062687 0.03173691 5.72271806 -1 9 C-1.66 9 -2.32 9 -3 9 C-3.33 10.98 -3.66 12.96 -4 15 C-4.66 14.67 -5.32 14.34 -6 14 C-4.45941767 8.98491285 -2.97068161 4.3852919 0 0 Z " fill="#BC6E44" transform="translate(113,260)"/>
<path d="M0 0 C1.63814448 2.45721672 2.61952199 4.34567811 3.625 7.0625 C3.88539063 7.75472656 4.14578125 8.44695312 4.4140625 9.16015625 C5 11 5 11 5 13 C7.475 13.99 7.475 13.99 10 15 C8 16 8 16 6.0625 15.9375 C4 15 4 15 2.3125 12.5 C0.74340176 8.31573803 0.28573777 4.43386191 0 0 Z " fill="#7F3230" transform="translate(164,237)"/>
<path d="M0 0 C0 0.33 0 0.66 0 1 C-5.445 1.495 -5.445 1.495 -11 2 C-11 2.66 -11 3.32 -11 4 C-11.804375 4.268125 -12.60875 4.53625 -13.4375 4.8125 C-14.283125 5.204375 -15.12875 5.59625 -16 6 C-16.33 6.99 -16.66 7.98 -17 9 C-16.45276317 5.62537285 -15.9451 3.91765 -14 1 C-9.35363139 -0.21690606 -4.76704264 -0.08219039 0 0 Z " fill="#F2531A" transform="translate(392,244)"/>
<path d="M0 0 C0.33 0 0.66 0 1 0 C0.88637738 1.4800841 0.75877092 2.95910074 0.625 4.4375 C0.55539063 5.26121094 0.48578125 6.08492187 0.4140625 6.93359375 C0.27742188 7.61550781 0.14078125 8.29742187 0 9 C-0.99 9.495 -0.99 9.495 -2 10 C-2.73075648 12.3140622 -3.40138258 14.64828869 -4 17 C-4.66 17 -5.32 17 -6 17 C-4.13236819 11.27789404 -2.14710968 5.62338249 0 0 Z " fill="#AA5244" transform="translate(127,222)"/>
<path d="M0 0 C0.99 0 1.98 0 3 0 C3.268125 0.639375 3.53625 1.27875 3.8125 1.9375 C4.88667752 4.33131686 4.88667752 4.33131686 8 5 C8 5.66 8 6.32 8 7 C5.69 6.67 3.38 6.34 1 6 C0.34 4.35 -0.32 2.7 -1 1 C-0.67 0.67 -0.34 0.34 0 0 Z " fill="#CF512B" transform="translate(378,260)"/>
<path d="M0 0 C0.66 0 1.32 0 2 0 C2 0.66 2 1.32 2 2 C2.66 2 3.32 2 4 2 C4 3.32 4 4.64 4 6 C4.66 6 5.32 6 6 6 C6 7.98 6 9.96 6 12 C2.92307943 9.23077149 1.22199993 6.97149976 0 3 C0 2.01 0 1.02 0 0 Z " fill="#8B2E24" transform="translate(145,240)"/>
<path d="M0 0 C2 1.8125 2 1.8125 4 4 C4 4.99 4 5.98 4 7 C4.66 7 5.32 7 6 7 C6 7.66 6 8.32 6 9 C4.02 8.34 2.04 7.68 0 7 C0 4.69 0 2.38 0 0 Z " fill="#DA622C" transform="translate(195,268)"/>
<path d="M0 0 C2.475 0.99 2.475 0.99 5 2 C4.34 3.65 3.68 5.3 3 7 C1.35 7 -0.3 7 -2 7 C-1.34 4.69 -0.68 2.38 0 0 Z " fill="#FB7D1E" transform="translate(115,257)"/>
<path d="M0 0 C1.98 0 3.96 0 6 0 C7.04449911 3.13349732 6.93423645 3.98968256 6 7 C4.68 6.67 3.36 6.34 2 6 C3.875 2.125 3.875 2.125 5 1 C3.68 1 2.36 1 1 1 C0.67 1.66 0.34 2.32 0 3 C0 2.01 0 1.02 0 0 Z " fill="#ACB0D6" transform="translate(394,296)"/>
<path d="M0 0 C2.97 0 5.94 0 9 0 C9 0.33 9 0.66 9 1 C7.906875 1.04125 6.81375 1.0825 5.6875 1.125 C1.75003667 1.60565398 1.75003667 1.60565398 0.0625 5.0625 C-0.288125 6.031875 -0.63875 7.00125 -1 8 C-1.66 8 -2.32 8 -3 8 C-1.125 2.25 -1.125 2.25 0 0 Z " fill="#C48867" transform="translate(141,254)"/>
<path d="M0 0 C3.45390549 2.66892697 4.12452998 5.84151743 5 10 C4.546875 12.22265625 4.546875 12.22265625 4 14 C3.32471777 12.42032193 2.66010306 10.83608097 2 9.25 C1.62875 8.36828125 1.2575 7.4865625 0.875 6.578125 C0 4 0 4 0 0 Z " fill="#5D232E" transform="translate(156,267)"/>
<path d="M0 0 C0.33 0.66 0.66 1.32 1 2 C0.01 3.485 0.01 3.485 -1 5 C-3.625 5.1875 -3.625 5.1875 -6 5 C-6 4.34 -6 3.68 -6 3 C-6.66 3 -7.32 3 -8 3 C-7.67 2.34 -7.34 1.68 -7 1 C-5.5459375 1.0309375 -5.5459375 1.0309375 -4.0625 1.0625 C-1.12534105 1.35618499 -1.12534105 1.35618499 0 0 Z " fill="#AA442C" transform="translate(344,266)"/>
<path d="M0 0 C0.66 0.99 1.32 1.98 2 3 C4.05003955 4.19232613 4.05003955 4.19232613 6 5 C6 5.33 6 5.66 6 6 C3.69 6.33 1.38 6.66 -1 7 C-0.67 4.69 -0.34 2.38 0 0 Z " fill="#A6A8BF" transform="translate(389,295)"/>
<path d="M0 0 C2.475 0.495 2.475 0.495 5 1 C5 2.98 5 4.96 5 7 C4.34 7 3.68 7 3 7 C0 2.61538462 0 2.61538462 0 0 Z " fill="#D5DCED" transform="translate(246,291)"/>
<path d="M0 0 C0.66 0.33 1.32 0.66 2 1 C2 1.66 2 2.32 2 3 C2.66 3 3.32 3 4 3 C4 3.66 4 4.32 4 5 C3.34 5 2.68 5 2 5 C1.67 5.66 1.34 6.32 1 7 C-0.5 5.625 -0.5 5.625 -2 4 C-2 3.34 -2 2.68 -2 2 C-1.34 2 -0.68 2 0 2 C0 1.34 0 0.68 0 0 Z " fill="#9092B7" transform="translate(265,292)"/>
<path d="M0 0 C0.66 0 1.32 0 2 0 C0.55527654 3.80881639 -1.32603071 5.29742886 -5 7 C-5.99 6.67 -6.98 6.34 -8 6 C-7.34 6 -6.68 6 -6 6 C-6 5.34 -6 4.68 -6 4 C-4.68 4 -3.36 4 -2 4 C-1.34 2.68 -0.68 1.36 0 0 Z " fill="#A9553C" transform="translate(398,275)"/>
<path d="M0 0 C1.32 0.33 2.64 0.66 4 1 C4 3 4 3 2 5.125 C1.34 5.74375 0.68 6.3625 0 7 C-0.99 6.67 -1.98 6.34 -3 6 C-2.01 4.02 -1.02 2.04 0 0 Z " fill="#F66D1C" transform="translate(396,272)"/>
<path d="M0 0 C0 0.66 0 1.32 0 2 C-3.54950034 3.16306443 -6.55823948 2.92365049 -10.25 2.5625 C-11.32765625 2.46066406 -12.4053125 2.35882813 -13.515625 2.25390625 C-14.33546875 2.17011719 -15.1553125 2.08632812 -16 2 C-16 1.67 -16 1.34 -16 1 C-14.08351538 0.83125293 -12.16680367 0.66508357 -10.25 0.5 C-9.18265625 0.4071875 -8.1153125 0.314375 -7.015625 0.21875 C-4.6820782 0.04947717 -2.33967818 0 0 0 Z " fill="#E44A1D" transform="translate(301,244)"/>
<path d="M0 0 C2.97 0 5.94 0 9 0 C8.67 1.32 8.34 2.64 8 4 C3.91927658 3.44855089 3.08669204 3.08669204 0 0 Z " fill="#F25312" transform="translate(263,244)"/>
<path d="M0 0 C1.08557659 3.24215827 0.94015194 5.02321809 -0.3125 8.1875 C-0.57675781 8.88230469 -0.84101563 9.57710937 -1.11328125 10.29296875 C-2 12 -2 12 -4 13 C-3.71517632 11.58194169 -3.42181856 10.16559621 -3.125 8.75 C-2.96257812 7.96109375 -2.80015625 7.1721875 -2.6328125 6.359375 C-2.00849925 4.03168856 -1.15161458 2.10968048 0 0 Z " fill="#843634" transform="translate(132,209)"/>
<path d="M0 0 C0.66 0 1.32 0 2 0 C2.66 1.32 3.32 2.64 4 4 C2.35 4.33 0.7 4.66 -1 5 C-1 4.34 -1 3.68 -1 3 C-1.66 2.67 -2.32 2.34 -3 2 C-2.01 2 -1.02 2 0 2 C0 1.34 0 0.68 0 0 Z " fill="#FA6A14" transform="translate(204,274)"/>
<path d="M0 0 C1 3 1 3 0.0625 5.1875 C-0.4634375 6.0846875 -0.4634375 6.0846875 -1 7 C-1.66 7 -2.32 7 -3 7 C-3 5.02 -3 3.04 -3 1 C-2.01 0.67 -1.02 0.34 0 0 Z " fill="#D6D9EC" transform="translate(240,290)"/>
<path d="M0 0 C-0.375 1.9375 -0.375 1.9375 -1 4 C-1.99 4.495 -1.99 4.495 -3 5 C-3 5.99 -3 6.98 -3 8 C-3.66 8 -4.32 8 -5 8 C-5.1875 5.125 -5.1875 5.125 -5 2 C-2 0 -2 0 0 0 Z " fill="#BF3305" transform="translate(152,234)"/>
<path d="M0 0 C0.33 0 0.66 0 1 0 C1.1875 2.375 1.1875 2.375 1 5 C0.01 5.66 -0.98 6.32 -2 7 C-2.99 6.34 -3.98 5.68 -5 5 C-4.01 3.68 -3.02 2.36 -2 1 C-2 1.99 -2 2.98 -2 4 C-1.34 4 -0.68 4 0 4 C0 2.68 0 1.36 0 0 Z " fill="#7D82A4" transform="translate(251,294)"/>
<path d="M0 0 C0.66 0 1.32 0 2 0 C2.33 0.99 2.66 1.98 3 3 C3.66 2.67 4.32 2.34 5 2 C4.67 2.99 4.34 3.98 4 5 C2.35 5 0.7 5 -1 5 C-0.67 3.35 -0.34 1.7 0 0 Z " fill="#F88B21" transform="translate(141,260)"/>
<path d="M0 0 C6.75 1.625 6.75 1.625 9 5 C8.01 5 7.02 5 6 5 C6 4.34 6 3.68 6 3 C4.35 3 2.7 3 1 3 C0.67 2.01 0.34 1.02 0 0 Z " fill="#AD4537" transform="translate(392,256)"/>
<path d="M0 0 C0.33 0.66 0.66 1.32 1 2 C1.99 2 2.98 2 4 2 C4 3.65 4 5.3 4 7 C2.68 6.34 1.36 5.68 0 5 C0 3.35 0 1.7 0 0 Z " fill="#C4C8DF" transform="translate(283,292)"/>
<path d="M0 0 C2.79579355 1.39789678 3.59807058 3.2628997 5 6 C4.67 6.66 4.34 7.32 4 8 C2.68 7.34 1.36 6.68 0 6 C0 4.02 0 2.04 0 0 Z " fill="#DC460D" transform="translate(162,241)"/>
<path d="M0 0 C1.65 0 3.3 0 5 0 C5 0.99 5 1.98 5 3 C4.01 3.33 3.02 3.66 2 4 C1.01 3.34 0.02 2.68 -1 2 C-0.67 1.34 -0.34 0.68 0 0 Z " fill="#FD4E03" transform="translate(145,211)"/>
</svg>
