<?xml version="1.0" standalone="no"?>
<!DOCTYPE svg PUBLIC "-//W3C//DTD SVG 20010904//EN"
 "http://www.w3.org/TR/2001/REC-SVG-20010904/DTD/svg10.dtd">
<svg version="1.0" xmlns="http://www.w3.org/2000/svg"
 width="362.000000pt" height="131.000000pt" viewBox="0 0 362.000000 131.000000"
 preserveAspectRatio="xMidYMid meet">

<g transform="translate(0.000000,131.000000) scale(0.100000,-0.100000)"
fill="#000000" stroke="none">
<path d="M587 1142 c-8 -2 -23 -24 -32 -50 -34 -89 -206 -527 -231 -585 -36
-88 -37 -87 60 -87 l83 0 21 53 c80 205 169 412 177 413 6 1 28 -44 51 -100
l40 -101 96 0 c53 0 99 -3 102 -6 4 -3 7 -27 8 -53 1 -26 4 -43 6 -37 2 6 8 9
13 6 5 -4 6 2 2 12 -3 10 -4 16 -2 13 32 -38 42 -53 28 -42 -14 10 -18 10 -23
-3 -4 -12 -23 -15 -91 -15 -47 0 -85 -3 -85 -7 0 -5 12 -36 27 -71 l27 -62 88
0 c49 0 88 2 88 3 0 4 -35 104 -45 128 -5 13 -1 15 19 12 33 -7 33 3 -1 71
-17 35 -38 61 -58 72 -23 12 -37 32 -55 78 -13 33 -50 127 -83 208 l-59 147
-78 3 c-43 2 -85 2 -93 0z m-96 -605 c-10 -9 -11 -8 -5 6 3 10 9 15 12 12 3
-3 0 -11 -7 -18z m-131 -43 c0 -11 4 -12 18 -4 9 5 38 13 63 18 44 9 46 8 41
-15 -2 -12 -8 -23 -12 -23 -5 0 -12 -9 -15 -20 -10 -31 -25 -24 -26 13 l-2 32
-7 -35 c-4 -19 -8 -27 -9 -18 0 9 -5 19 -10 22 -5 4 -7 -2 -5 -11 4 -15 -3
-19 -36 -21 -35 -2 -40 0 -40 18 0 12 5 18 10 15 6 -4 10 7 10 25 0 18 4 29
10 25 6 -3 10 -13 10 -21z m662 -42 c4 -14 -1 -18 -28 -17 -23 0 -32 4 -31 16
1 10 7 14 19 11 10 -2 18 1 18 7 0 17 17 5 22 -17z"/>
<path d="M1905 793 c-11 -3 -28 -12 -37 -20 -16 -14 -18 -14 -24 1 -5 12 -20
16 -65 16 l-59 0 0 -180 0 -180 60 0 60 0 0 78 c0 108 14 150 53 167 18 7 44
11 58 8 25 -5 26 -3 32 49 2 29 4 54 3 55 -6 7 -63 11 -81 6z m-127 -324 c15
-1 33 -1 40 0 6 1 12 -2 12 -8 0 -5 -18 -11 -39 -13 -22 -2 -37 0 -35 4 3 5 0
8 -5 8 -6 0 -10 15 -10 33 2 30 2 30 6 5 3 -22 10 -28 31 -29z m40 34 c-10 -2
-28 -2 -40 0 -13 2 -5 4 17 4 22 1 32 -1 23 -4z m0 -20 c-10 -2 -28 -2 -40 0
-13 2 -5 4 17 4 22 1 32 -1 23 -4z"/>
<path d="M2267 781 c-32 -16 -38 -17 -45 -4 -6 10 -23 13 -63 11 l-54 -3 -3
-177 -2 -178 62 0 63 0 3 95 c1 52 7 106 12 120 13 35 52 52 85 37 29 -14 30
-12 40 59 5 38 3 48 -10 53 -27 10 -49 7 -88 -13z m-104 -278 c-7 -2 -21 -2
-30 0 -10 3 -4 5 12 5 17 0 24 -2 18 -5z m37 -23 c-12 -8 -13 -12 -2 -19 11
-7 11 -9 -2 -14 -12 -5 -16 0 -17 16 -1 17 -2 18 -6 5 -3 -11 -14 -18 -29 -18
-30 0 -32 20 -1 21 21 1 21 1 -3 9 -20 6 -15 8 25 9 36 0 46 -2 35 -9z"/>
<path d="M3115 793 c-43 -7 -82 -39 -95 -77 -22 -69 17 -126 101 -146 37 -9
49 -16 47 -29 -4 -23 -51 -25 -93 -5 -20 9 -37 15 -38 13 -1 -2 -13 -19 -26
-38 l-24 -34 28 -23 c31 -25 67 -34 132 -34 84 0 143 55 143 136 0 51 -26 77
-101 102 -30 11 -53 23 -51 28 3 10 60 11 82 1 11 -5 22 5 38 32 12 22 22 42
22 45 0 15 -118 36 -165 29z m92 -315 l1 -33 -64 -3 c-51 -3 -68 0 -82 14 -16
17 -16 18 1 11 25 -9 77 3 77 19 0 7 14 15 33 17 17 2 32 5 33 5 0 1 0 -13 1
-30z m-167 2 c0 -19 -11 -26 -23 -14 -8 8 3 34 14 34 5 0 9 -9 9 -20z m185 0
c-3 -5 -1 -10 5 -10 6 0 8 -5 4 -11 -4 -8 -9 -7 -15 2 -12 19 -11 29 2 29 5 0
7 -4 4 -10z"/>
<path d="M1194 775 c-4 -8 -5 -69 -3 -134 4 -129 12 -150 73 -195 23 -18 42
-21 116 -21 96 0 121 10 164 69 19 24 21 42 21 159 l0 132 -62 3 -63 3 0 -119
c0 -78 -4 -122 -12 -130 -20 -20 -86 -15 -98 7 -5 11 -10 69 -10 130 l0 111
-60 0 c-45 0 -62 -4 -66 -15z m152 -265 c20 0 17 -27 -3 -40 -15 -9 -14 -10 7
-4 14 4 31 7 38 7 6 0 12 4 12 9 0 4 7 8 15 8 8 0 15 -5 15 -11 0 -6 9 -8 20
-4 11 4 20 2 20 -4 0 -6 8 -8 18 -5 16 5 16 5 -1 -6 -9 -6 -26 -8 -37 -5 -16
5 -19 3 -13 -11 6 -15 0 -17 -58 -11 -35 3 -65 10 -67 16 -2 6 -16 12 -30 12
-24 2 -24 2 -4 6 14 3 22 12 22 24 0 11 5 17 10 14 6 -3 10 2 11 12 0 10 3 13
6 6 2 -7 11 -13 19 -13z m-99 -15 c0 -20 -4 -19 -17 5 -8 15 -8 18 3 14 8 -3
14 -11 14 -19z m238 -5 c16 -7 14 -8 -12 -7 -17 1 -29 5 -26 10 5 9 12 8 38
-3z"/>
<path d="M2480 663 c0 -152 12 -184 81 -221 37 -20 56 -23 120 -20 64 3 81 7
112 31 20 15 42 37 48 49 7 12 12 77 13 152 l1 131 -62 3 -63 3 0 -119 c0 -78
-4 -122 -12 -130 -16 -16 -83 -15 -96 1 -6 7 -13 64 -14 128 l-3 114 -62 3
-63 3 0 -128z m69 -149 c7 4 11 -1 11 -13 0 -11 -4 -23 -10 -26 -6 -4 -7 1 -3
11 5 13 2 16 -8 12 -10 -4 -15 1 -17 15 -1 16 1 18 7 8 5 -7 14 -10 20 -7z
m181 -4 c0 -5 -5 -10 -11 -10 -5 0 -7 5 -4 10 3 6 8 10 11 10 2 0 4 -4 4 -10z
m-22 -73 c15 -2 3 -5 -26 -6 -35 0 -51 3 -47 9 4 7 -2 9 -17 5 -13 -3 -31 0
-43 9 -19 14 -17 15 24 11 57 -5 79 8 26 16 l-40 6 38 2 c21 0 37 6 38 14 1 6
5 -5 11 -25 8 -29 15 -38 36 -41z m103 57 c0 -4 -13 -9 -28 -10 l-28 -3 25 14
c25 13 32 13 31 -1z m-61 -26 c0 -5 10 -6 23 -3 22 7 22 7 2 -8 -11 -9 -21
-12 -23 -7 -2 5 -10 6 -17 4 -9 -4 -13 1 -12 14 1 20 27 20 27 0z"/>
<path d="M1431 311 c-26 -26 -27 -73 -2 -95 22 -20 92 -19 99 2 3 9 -3 10 -23
2 -36 -14 -75 10 -75 44 0 34 24 50 66 43 25 -4 34 -2 31 6 -7 22 -74 20 -96
-2z"/>
<path d="M1642 314 c-28 -19 -30 -74 -4 -97 25 -23 85 -22 105 1 40 44 8 112
-53 112 -14 0 -36 -7 -48 -16z m86 -16 c20 -20 14 -56 -13 -74 -23 -15 -27
-15 -50 0 -44 29 -28 86 25 86 14 0 31 -5 38 -12z"/>
<path d="M1860 259 c0 -44 4 -68 10 -64 6 3 10 27 10 53 l1 47 49 -55 49 -55
1 63 c0 34 0 65 1 69 0 4 -5 9 -12 12 -9 3 -10 -8 -6 -43 4 -25 3 -46 -2 -46
-5 0 -25 20 -45 45 -21 25 -42 45 -47 45 -5 0 -9 -32 -9 -71z"/>
<path d="M2087 324 c-15 -15 -6 -43 19 -63 33 -26 27 -59 -7 -40 -17 9 -20 8
-17 -3 3 -7 18 -13 34 -13 24 0 30 5 32 26 2 18 -4 29 -23 39 -34 18 -34 44 0
37 16 -3 24 0 22 7 -4 13 -49 20 -60 10z"/>
<path d="M2246 279 c2 -28 9 -58 15 -65 14 -17 71 -18 87 -2 14 14 16 118 2
118 -5 0 -10 -22 -10 -50 0 -38 -4 -52 -19 -59 -31 -17 -53 8 -53 62 0 31 -4
47 -12 47 -9 0 -12 -15 -10 -51z"/>
<path d="M2460 265 l0 -65 41 0 c22 0 38 4 35 9 -3 4 -17 6 -31 3 -25 -4 -25
-3 -25 57 0 34 -4 61 -10 61 -6 0 -10 -28 -10 -65z"/>
<path d="M2600 320 c0 -5 12 -10 26 -10 24 0 25 -2 23 -52 -1 -29 2 -53 7 -53
5 0 9 24 9 53 -1 48 1 52 22 52 13 0 23 5 23 10 0 6 -25 10 -55 10 -30 0 -55
-4 -55 -10z"/>
<path d="M2800 266 c0 -36 5 -68 10 -71 6 -4 10 20 10 64 0 41 -4 71 -10 71
-6 0 -10 -28 -10 -64z"/>
<path d="M2929 308 c-5 -76 -3 -112 6 -108 6 3 9 28 7 55 l-3 50 46 -52 c26
-29 51 -53 56 -53 5 0 9 29 9 65 0 77 -18 88 -22 14 l-3 -50 -39 50 c-42 56
-55 63 -57 29z"/>
<path d="M3172 314 c-15 -10 -22 -25 -22 -48 0 -45 27 -68 77 -64 33 3 38 6
41 31 3 23 0 27 -22 27 -14 0 -26 -4 -26 -10 0 -5 7 -10 15 -10 19 0 20 -16 1
-23 -26 -10 -56 5 -63 31 -9 39 8 57 56 56 42 -1 54 9 25 20 -27 10 -59 7 -82
-10z"/>
<path d="M285 260 c-4 -7 163 -10 494 -10 327 0 501 3 501 10 0 7 -171 10
-494 10 -319 0 -497 -4 -501 -10z"/>
<path d="M903 3 c499 -2 1315 -2 1815 0 499 1 90 2 -908 2 -998 0 -1407 -1
-907 -2z"/>
</g>
</svg>
