<?xml version="1.0" encoding="UTF-8"?>
<svg version="1.1" xmlns="http://www.w3.org/2000/svg" width="499" height="499">
<path d="M0 0 C0.71929687 0.01345459 1.43859375 0.02690918 2.1796875 0.04077148 C2.96859375 0.04786133 3.7575 0.05495117 4.5703125 0.06225586 C5.39015625 0.09512695 6.21 0.12799805 7.0546875 0.16186523 C7.87453125 0.16766602 8.694375 0.1734668 9.5390625 0.17944336 C15.61082688 0.30345815 15.61082688 0.30345815 19.0546875 2.59936523 C20.05029297 4.45605469 20.05029297 4.45605469 20.921875 6.71264648 C21.24776611 7.54256104 21.57365723 8.37247559 21.90942383 9.22753906 C22.24611084 10.1133667 22.58279785 10.99919434 22.9296875 11.91186523 C23.28119873 12.81380615 23.63270996 13.71574707 23.99487305 14.64501953 C25.02447233 17.29286437 26.04136565 19.94525533 27.0546875 22.59936523 C27.56343734 23.92242221 28.07250628 25.24535658 28.58203125 26.56811523 C29.21818359 28.22327148 29.21818359 28.22327148 29.8671875 29.91186523 C30.25648438 30.91733398 30.64578125 31.92280273 31.046875 32.95874023 C31.65964241 34.56428585 32.25352659 36.17743351 32.8125 37.80249023 C34.03787552 41.15466694 34.85932538 42.47620216 37.9296875 44.41186523 C42.34778267 47.50453185 44.23760371 51.58228434 46.0546875 56.59936523 C46.0546875 57.91936523 46.0546875 59.23936523 46.0546875 60.59936523 C44.7346875 60.92936523 43.4146875 61.25936523 42.0546875 61.59936523 C42.50521484 62.48688477 42.50521484 62.48688477 42.96484375 63.39233398 C43.34511719 64.1825293 43.72539062 64.97272461 44.1171875 65.78686523 C44.50003906 66.56416992 44.88289063 67.34147461 45.27734375 68.14233398 C46.0546875 70.59936523 46.0546875 70.59936523 45.0546875 75.59936523 C38.7846875 75.59936523 32.5146875 75.59936523 26.0546875 75.59936523 C24.0746875 71.30936523 22.0946875 67.01936523 20.0546875 62.59936523 C18.85070312 62.5387793 17.64671875 62.47819336 16.40625 62.41577148 C14.83071673 62.33136792 13.25519654 62.24671982 11.6796875 62.16186523 C10.48859375 62.10289062 10.48859375 62.10289062 9.2734375 62.04272461 C3.28125 61.71264648 3.28125 61.71264648 1.0546875 60.59936523 C1.59331525 55.32081327 2.33320205 51.13517432 5.0546875 46.59936523 C8.7421875 45.66186523 8.7421875 45.66186523 12.0546875 45.59936523 C12.0546875 42.30278668 11.31135481 40.43572096 10.0546875 37.41186523 C9.6834375 36.51081055 9.3121875 35.60975586 8.9296875 34.68139648 C8.6409375 33.99432617 8.3521875 33.30725586 8.0546875 32.59936523 C5.35470338 35.29934936 4.50134902 38.45049845 3.2421875 41.97436523 C0.6958706 48.93372722 -2.05251431 55.7760349 -4.9453125 62.59936523 C-6.27499474 65.83180404 -7.60415102 69.06444277 -8.9296875 72.29858398 C-9.9453125 74.59936523 -9.9453125 74.59936523 -10.9453125 75.59936523 C-12.36101373 75.68588134 -13.7809075 75.70641427 -15.19921875 75.69702148 C-16.05322266 75.69379883 -16.90722656 75.69057617 -17.78710938 75.68725586 C-18.68494141 75.67887695 -19.58277344 75.67049805 -20.5078125 75.66186523 C-21.40951172 75.65735352 -22.31121094 75.6528418 -23.24023438 75.64819336 C-25.47532564 75.63636748 -27.71028687 75.61988744 -29.9453125 75.59936523 C-31.21679466 71.26870394 -30.62502695 68.90542943 -28.91015625 64.77905273 C-28.43698975 63.62010498 -27.96382324 62.46115723 -27.47631836 61.26708984 C-26.94534919 60.00276453 -26.41417499 58.7385253 -25.8828125 57.47436523 C-25.34183514 56.16184921 -24.80222959 54.84876704 -24.26391602 53.53515625 C-23.40810717 51.44796037 -22.55103991 49.36134844 -21.68907166 47.27668762 C-19.45586727 41.87285776 -17.28255367 36.44704361 -15.1328125 31.00952148 C-14.81905167 30.21735229 -14.50529083 29.42518311 -14.18202209 28.60900879 C-12.9433725 25.48158533 -11.70485166 22.35412441 -10.47164917 19.22454834 C-9.61152616 17.04443981 -8.74582967 14.8666206 -7.87890625 12.68920898 C-7.49986145 11.72229881 -7.49986145 11.72229881 -7.11315918 10.7358551 C-3.21671566 0.99109399 -3.21671566 0.99109399 0 0 Z " fill="#FC7519" transform="translate(134.9453125,206.400634765625)"/>
<path d="M0 0 C0.72566162 0.01345459 1.45132324 0.02690918 2.19897461 0.04077148 C2.99239258 0.04786133 3.78581055 0.05495117 4.60327148 0.06225586 C5.42762695 0.09512695 6.25198242 0.12799805 7.10131836 0.16186523 C7.92954102 0.16766602 8.75776367 0.1734668 9.61108398 0.17944336 C15.74364342 0.3041903 15.74364342 0.3041903 18.03881836 2.59936523 C17.73588867 3.17041992 17.43295898 3.74147461 17.12084961 4.32983398 C10.93936769 16.15679978 10.93936769 16.15679978 7.60131836 28.95092773 C6.91872602 33.37829748 5.4681473 37.15442492 3.78881836 41.28686523 C3.47380371 42.07851074 3.15878906 42.87015625 2.83422852 43.68579102 C0.68463108 49.06689524 -1.51123441 54.42937427 -3.76586914 59.76733398 C-4.63564561 61.82807888 -5.49342869 63.89389831 -6.34399414 65.96264648 C-6.79516602 67.05963867 -7.24633789 68.15663086 -7.71118164 69.28686523 C-8.11852539 70.28073242 -8.52586914 71.27459961 -8.94555664 72.29858398 C-9.96118164 74.59936523 -9.96118164 74.59936523 -10.96118164 75.59936523 C-12.37688287 75.68588134 -13.79677664 75.70641427 -15.21508789 75.69702148 C-16.0690918 75.69379883 -16.9230957 75.69057617 -17.80297852 75.68725586 C-18.70081055 75.67887695 -19.59864258 75.67049805 -20.52368164 75.66186523 C-21.42538086 75.65735352 -22.32708008 75.6528418 -23.25610352 75.64819336 C-25.49119478 75.63636748 -27.72615601 75.61988744 -29.96118164 75.59936523 C-31.2326638 71.26870394 -30.64089609 68.90542943 -28.92602539 64.77905273 C-28.45285889 63.62010498 -27.97969238 62.46115723 -27.4921875 61.26708984 C-26.96121833 60.00276453 -26.43004414 58.7385253 -25.89868164 57.47436523 C-25.35770428 56.16184921 -24.81809873 54.84876704 -24.27978516 53.53515625 C-23.42397631 51.44796037 -22.56690905 49.36134844 -21.7049408 47.27668762 C-19.47173641 41.87285776 -17.29842281 36.44704361 -15.14868164 31.00952148 C-14.83492081 30.21735229 -14.52115997 29.42518311 -14.19789124 28.60900879 C-12.95924164 25.48158533 -11.7207208 22.35412441 -10.48751831 19.22454834 C-9.6273953 17.04443981 -8.76169881 14.8666206 -7.89477539 12.68920898 C-7.51573059 11.72229881 -7.51573059 11.72229881 -7.12902832 10.7358551 C-3.23114095 0.98748301 -3.23114095 0.98748301 0 0 Z " fill="#FC6712" transform="translate(134.961181640625,206.400634765625)"/>
<path d="M0 0 C2.31243792 -0.02685412 4.6249627 -0.04632841 6.9375 -0.0625 C8.22527344 -0.07410156 9.51304687 -0.08570313 10.83984375 -0.09765625 C14 0 14 0 15 1 C15.14431309 2.36669706 15.22689369 3.74006148 15.28125 5.11328125 C15.31863281 5.94923828 15.35601562 6.78519531 15.39453125 7.64648438 C15.44673828 8.96616211 15.44673828 8.96616211 15.5 10.3125 C15.5691703 12.03791468 15.64196154 13.76318882 15.71875 15.48828125 C15.74904297 16.25696533 15.77933594 17.02564941 15.81054688 17.81762695 C15.99762661 19.97266015 16.41610944 21.92062861 17 24 C18.98 24.33 20.96 24.66 23 25 C23.02505615 24.27820557 23.0501123 23.55641113 23.07592773 22.81274414 C23.19151302 19.562465 23.31440774 16.31250312 23.4375 13.0625 C23.47681641 11.92619141 23.51613281 10.78988281 23.55664062 9.61914062 C23.59853516 8.53955078 23.64042969 7.45996094 23.68359375 6.34765625 C23.72025146 5.34742432 23.75690918 4.34719238 23.79467773 3.31665039 C24 1 24 1 25 0 C27.33160055 -0.09909302 29.66629942 -0.12970504 32 -0.125 C33.27875 -0.12757813 34.5575 -0.13015625 35.875 -0.1328125 C39 0 39 0 40 1 C40.28324736 5.38904659 40.23189568 9.79041407 40.25 14.1875 C40.270625 15.42048828 40.29125 16.65347656 40.3125 17.92382812 C40.32023437 19.71530273 40.32023437 19.71530273 40.328125 21.54296875 C40.3374707 22.63633545 40.34681641 23.72970215 40.35644531 24.85620117 C39.81440998 29.63687851 38.11981811 32.91044724 34.6875 36.25 C27.97796325 40.61900067 20.77704963 40.89244832 13 40 C8.06192569 38.4234644 4.20966063 36.50291169 0.9375 32.4375 C-0.6453111 28.32219114 -1.12768373 24.84849273 -1.1328125 20.4296875 C-1.13410156 19.36878906 -1.13539063 18.30789063 -1.13671875 17.21484375 C-1.13285156 16.11269531 -1.12898437 15.01054687 -1.125 13.875 C-1.12886719 12.76511719 -1.13273438 11.65523437 -1.13671875 10.51171875 C-1.13542969 9.45339844 -1.13414062 8.39507812 -1.1328125 7.3046875 C-1.13168457 6.33515137 -1.13055664 5.36561523 -1.12939453 4.36669922 C-1 2 -1 2 0 0 Z " fill="#FC590D" transform="translate(193,242)"/>
<path d="M0 0 C1.27875 0.00257813 2.5575 0.00515625 3.875 0.0078125 C5.15375 0.00523437 6.4325 0.00265625 7.75 0 C10.875 0.1328125 10.875 0.1328125 11.875 1.1328125 C12.03264405 2.91150976 12.12600677 4.69599726 12.19140625 6.48046875 C12.23330078 7.56005859 12.27519531 8.63964844 12.31835938 9.75195312 C12.35767578 10.88826172 12.39699219 12.02457031 12.4375 13.1953125 C12.48068359 14.33548828 12.52386719 15.47566406 12.56835938 16.65039062 C12.67482839 19.47773445 12.77684207 22.30516988 12.875 25.1328125 C15.185 25.1328125 17.495 25.1328125 19.875 25.1328125 C19.90005615 24.41101807 19.9251123 23.68922363 19.95092773 22.94555664 C20.06651302 19.6952775 20.18940774 16.44531562 20.3125 13.1953125 C20.35181641 12.05900391 20.39113281 10.92269531 20.43164062 9.75195312 C20.47353516 8.67236328 20.51542969 7.59277344 20.55859375 6.48046875 C20.59525146 5.48023682 20.63190918 4.48000488 20.66967773 3.44946289 C20.875 1.1328125 20.875 1.1328125 21.875 0.1328125 C24.22813555 0.06009509 26.58333668 0.04910382 28.9375 0.0703125 C30.22785156 0.07933594 31.51820313 0.08835938 32.84765625 0.09765625 C33.84667969 0.10925781 34.84570312 0.12085938 35.875 0.1328125 C37.90228941 4.18739133 37.10404102 9.36390841 37.125 13.8203125 C37.145625 14.89732422 37.16625 15.97433594 37.1875 17.08398438 C37.22111017 23.93625679 37.01330006 29.38571652 32.4453125 34.83984375 C25.11869756 40.4437141 18.89734496 40.82012536 9.875 40.1328125 C5.38738117 39.28109537 2.00225889 37.62471692 -1.0625 34.1953125 C-4.07807179 29.71764529 -4.25213249 26.43757776 -4.2578125 21.08984375 C-4.25910156 19.93419922 -4.26039063 18.77855469 -4.26171875 17.58789062 C-4.25785156 16.38583984 -4.25398438 15.18378906 -4.25 13.9453125 C-4.25386719 12.73166016 -4.25773437 11.51800781 -4.26171875 10.26757812 C-4.26042969 9.11580078 -4.25914062 7.96402344 -4.2578125 6.77734375 C-4.25668457 5.71878174 -4.25555664 4.66021973 -4.25439453 3.56958008 C-4.05949864 -0.10071403 -3.75523109 0.15959732 0 0 Z " fill="#FD570C" transform="translate(323.125,241.8671875)"/>
<path d="M0 0 C1.3125 2.1875 1.3125 2.1875 1 5 C-0.45108699 7.82856813 -2.14888144 10.41868242 -4 13 C-3.37867188 13.26683594 -2.75734375 13.53367187 -2.1171875 13.80859375 C0.55818303 15.31410669 1.51211434 17.0948049 2.578125 19.9375 C3.39410593 23.92674012 2.70833285 27.33738755 1 31 C-2.45191081 35.04270239 -6.02780894 37.75389501 -11.453125 38.203125 C-19.40920881 38.33646719 -24.74906022 37.25078941 -31 32 C-30.54300722 26.97307937 -28.00758252 23.85103739 -25 20 C-25.680625 19.01 -26.36125 18.02 -27.0625 17 C-29.08043902 13.43257209 -29.45039827 10.93517609 -28.671875 6.92578125 C-27.12391233 2.48888825 -24.4865781 -0.25671095 -20.25 -2.375 C-12.87739733 -3.79280821 -6.73569972 -3.48813021 0 0 Z M-21 22 C-20.34 22.66 -19.68 23.32 -19 24 C-16.89179203 23.6814823 -16.89179203 23.6814823 -15 23 C-17.97 22.505 -17.97 22.505 -21 22 Z " fill="#FC5C0E" transform="translate(400,244)"/>
<path d="M0 0 C0.99 0.66 1.98 1.32 3 2 C2.67 6.29 2.34 10.58 2 15 C-2 16 -2 16 -5.125 15.9375 C-8.13239112 15.67134345 -8.13239112 15.67134345 -10 18 C-10.35318601 20.09627345 -10.35318601 20.09627345 -10.37890625 22.5 C-10.41306641 23.386875 -10.44722656 24.27375 -10.48242188 25.1875 C-10.50884766 26.115625 -10.53527344 27.04375 -10.5625 28 C-10.62234232 29.83346686 -10.68596119 31.66681553 -10.75390625 33.5 C-10.77783447 34.3146875 -10.8017627 35.129375 -10.82641602 35.96875 C-11 38 -11 38 -12 40 C-14.29141286 40.05384521 -16.58318188 40.09272087 -18.875 40.125 C-20.15117187 40.14820313 -21.42734375 40.17140625 -22.7421875 40.1953125 C-26 40 -26 40 -28 38 C-28.24291992 36.19091797 -28.24291992 36.19091797 -28.23046875 33.9921875 C-28.22926025 33.1772583 -28.22805176 32.3623291 -28.22680664 31.52270508 C-28.21383545 30.6489624 -28.20086426 29.77521973 -28.1875 28.875 C-28.18032959 27.98514404 -28.17315918 27.09528809 -28.16577148 26.1784668 C-27.88528089 2.88528089 -27.88528089 2.88528089 -26 1 C-22.62895369 0.93966808 -19.27270523 0.97982943 -15.90234375 1.0390625 C-10.40466538 1.09914642 -5.52528104 -0.2959972 0 0 Z " fill="#FC560C" transform="translate(309,241)"/>
<path d="M0 0 C0.66 0.33 1.32 0.66 2 1 C2.05429959 2.74965358 2.09292823 4.49979787 2.125 6.25 C2.14820313 7.22453125 2.17140625 8.1990625 2.1953125 9.203125 C2 12 2 12 0 16 C-3.3 16 -6.6 16 -10 16 C-10.77142799 19.08571195 -11.1588067 21.40472011 -11.28125 24.51171875 C-11.31863281 25.35154297 -11.35601562 26.19136719 -11.39453125 27.05664062 C-11.46531279 28.82224688 -11.53561912 30.58787225 -11.60546875 32.35351562 C-11.64285156 33.18947266 -11.68023437 34.02542969 -11.71875 34.88671875 C-11.76418945 36.03466919 -11.76418945 36.03466919 -11.81054688 37.20581055 C-12 39 -12 39 -13 40 C-15.35313555 40.07271741 -17.70833668 40.08370868 -20.0625 40.0625 C-21.35285156 40.05347656 -22.64320313 40.04445313 -23.97265625 40.03515625 C-24.97167969 40.02355469 -25.97070312 40.01195312 -27 40 C-28.55043334 36.89913331 -28.1420075 33.62099234 -28.1328125 30.21875 C-28.13376923 29.44946167 -28.13472595 28.68017334 -28.13571167 27.88757324 C-28.13639254 26.26017169 -28.13454473 24.63276743 -28.13037109 23.00537109 C-28.1250215 20.51002927 -28.13031919 18.01486745 -28.13671875 15.51953125 C-28.13605795 13.94010377 -28.13477675 12.3606764 -28.1328125 10.78125 C-28.13483673 10.0322644 -28.13686096 9.28327881 -28.13894653 8.51159668 C-28.11496122 3.22992243 -28.11496122 3.22992243 -27 1 C-25.87980469 1.01160156 -24.75960937 1.02320313 -23.60546875 1.03515625 C-22.13281417 1.04453622 -20.66015778 1.0536362 -19.1875 1.0625 C-18.44951172 1.07087891 -17.71152344 1.07925781 -16.95117188 1.08789062 C-11.11032975 1.11431977 -5.90065782 -0.18732247 0 0 Z " fill="#FC560B" transform="translate(272,241)"/>
<path d="M0 0 C0.66 0 1.32 0 2 0 C9.68354277 19.11578381 9.68354277 19.11578381 12.8125 27.3125 C13.19921875 28.31667969 13.5859375 29.32085937 13.984375 30.35546875 C14.60811303 31.97958662 15.22443357 33.60660584 15.828125 35.23828125 C17.27438974 38.95395077 18.67235883 40.8198213 22 43 C22 43.66 22 44.32 22 45 C13.75 45 5.5 45 -3 45 C-3.969375 42.669375 -4.93875 40.33875 -5.9375 37.9375 C-6.39370728 36.85843384 -6.39370728 36.85843384 -6.85913086 35.75756836 C-9.94458834 28.18773398 -10.47717429 23.06969214 -7.34179688 15.421875 C-6.96087891 14.54015625 -6.57996094 13.6584375 -6.1875 12.75 C-5.81818359 11.8528125 -5.44886719 10.955625 -5.06835938 10.03125 C-3.57368346 6.44617455 -2.16156685 3.24235028 0 0 Z " fill="#C53702" transform="translate(152,209)"/>
<path d="M0 0 C2.31243792 -0.02685412 4.6249627 -0.04632841 6.9375 -0.0625 C8.22527344 -0.07410156 9.51304687 -0.08570313 10.83984375 -0.09765625 C14 0 14 0 15 1 C15.14431309 2.36669706 15.22689369 3.74006148 15.28125 5.11328125 C15.31863281 5.94923828 15.35601562 6.78519531 15.39453125 7.64648438 C15.44673828 8.96616211 15.44673828 8.96616211 15.5 10.3125 C15.5691703 12.03791468 15.64196154 13.76318882 15.71875 15.48828125 C15.74904297 16.25696533 15.77933594 17.02564941 15.81054688 17.81762695 C15.99762661 19.97266015 16.41610944 21.92062861 17 24 C18.98 24.33 20.96 24.66 23 25 C23.02505615 24.27820557 23.0501123 23.55641113 23.07592773 22.81274414 C23.19151302 19.562465 23.31440774 16.31250312 23.4375 13.0625 C23.47681641 11.92619141 23.51613281 10.78988281 23.55664062 9.61914062 C23.59853516 8.53955078 23.64042969 7.45996094 23.68359375 6.34765625 C23.72025146 5.34742432 23.75690918 4.34719238 23.79467773 3.31665039 C24 1 24 1 25 0 C27.33160055 -0.09909302 29.66629942 -0.12970504 32 -0.125 C33.27875 -0.12757813 34.5575 -0.13015625 35.875 -0.1328125 C39 0 39 0 40 1 C40.28324736 5.38904659 40.23189568 9.79041407 40.25 14.1875 C40.270625 15.42048828 40.29125 16.65347656 40.3125 17.92382812 C40.32023437 19.71530273 40.32023437 19.71530273 40.328125 21.54296875 C40.3374707 22.63633545 40.34681641 23.72970215 40.35644531 24.85620117 C39.81440998 29.63687851 38.11981811 32.91044724 34.6875 36.25 C27.97796325 40.61900067 20.77704963 40.89244832 13 40 C8.06192569 38.4234644 4.20966063 36.50291169 0.9375 32.4375 C-0.6453111 28.32219114 -1.12768373 24.84849273 -1.1328125 20.4296875 C-1.13410156 19.36878906 -1.13539063 18.30789063 -1.13671875 17.21484375 C-1.13285156 16.11269531 -1.12898437 15.01054687 -1.125 13.875 C-1.12886719 12.76511719 -1.13273438 11.65523437 -1.13671875 10.51171875 C-1.13542969 9.45339844 -1.13414062 8.39507812 -1.1328125 7.3046875 C-1.13168457 6.33515137 -1.13055664 5.36561523 -1.12939453 4.36669922 C-1 2 -1 2 0 0 Z M2 3 C1.9188865 6.87542277 1.8594395 10.74913882 1.8125 14.625 C1.78736328 15.71941406 1.76222656 16.81382812 1.73632812 17.94140625 C1.68309712 23.79681683 1.70016901 28.06324498 5 33 C5.66 33 6.32 33 7 33 C7 33.66 7 34.32 7 35 C11.22435879 37.03515174 14.77274825 37.29840709 19.4375 37.3125 C20.71496094 37.32925781 21.99242187 37.34601563 23.30859375 37.36328125 C28.62561109 36.84001923 31.6073445 35.40648982 35.359375 31.6171875 C37.83160176 26.16651612 37.42328864 21.03014369 37.25 15.125 C37.23195312 13.9596875 37.21390625 12.794375 37.1953125 11.59375 C37.1483382 8.72831751 37.08266293 5.86458832 37 3 C33.7 3 30.4 3 27 3 C26.95101562 4.56492188 26.90203125 6.12984375 26.8515625 7.7421875 C26.77654271 9.78647678 26.70099455 11.83074672 26.625 13.875 C26.57859375 15.42380859 26.57859375 15.42380859 26.53125 17.00390625 C26.49257812 17.99003906 26.45390625 18.97617187 26.4140625 19.9921875 C26.3826416 20.90339355 26.3512207 21.81459961 26.31884766 22.75341797 C26 25 26 25 24 27 C22.125 27.265625 22.125 27.265625 20 27.25 C18.948125 27.25773437 18.948125 27.25773437 17.875 27.265625 C16 27 16 27 14 25 C13.68115234 22.75341797 13.68115234 22.75341797 13.5859375 19.9921875 C13.54726562 19.00605469 13.50859375 18.01992188 13.46875 17.00390625 C13.4378125 15.97136719 13.406875 14.93882812 13.375 13.875 C13.33632812 12.83472656 13.29765625 11.79445312 13.2578125 10.72265625 C13.16335671 8.14873598 13.08058229 5.57439195 13 3 C9.37 3 5.74 3 2 3 Z " fill="#E95419" transform="translate(193,242)"/>
<path d="M0 0 C1.27875 0.00257813 2.5575 0.00515625 3.875 0.0078125 C5.15375 0.00523437 6.4325 0.00265625 7.75 0 C10.875 0.1328125 10.875 0.1328125 11.875 1.1328125 C12.03264405 2.91150976 12.12600677 4.69599726 12.19140625 6.48046875 C12.23330078 7.56005859 12.27519531 8.63964844 12.31835938 9.75195312 C12.35767578 10.88826172 12.39699219 12.02457031 12.4375 13.1953125 C12.48068359 14.33548828 12.52386719 15.47566406 12.56835938 16.65039062 C12.67482839 19.47773445 12.77684207 22.30516988 12.875 25.1328125 C15.185 25.1328125 17.495 25.1328125 19.875 25.1328125 C19.90005615 24.41101807 19.9251123 23.68922363 19.95092773 22.94555664 C20.06651302 19.6952775 20.18940774 16.44531562 20.3125 13.1953125 C20.35181641 12.05900391 20.39113281 10.92269531 20.43164062 9.75195312 C20.47353516 8.67236328 20.51542969 7.59277344 20.55859375 6.48046875 C20.59525146 5.48023682 20.63190918 4.48000488 20.66967773 3.44946289 C20.875 1.1328125 20.875 1.1328125 21.875 0.1328125 C24.22813555 0.06009509 26.58333668 0.04910382 28.9375 0.0703125 C30.22785156 0.07933594 31.51820313 0.08835938 32.84765625 0.09765625 C33.84667969 0.10925781 34.84570312 0.12085938 35.875 0.1328125 C37.90228941 4.18739133 37.10404102 9.36390841 37.125 13.8203125 C37.145625 14.89732422 37.16625 15.97433594 37.1875 17.08398438 C37.22111017 23.93625679 37.01330006 29.38571652 32.4453125 34.83984375 C25.11869756 40.4437141 18.89734496 40.82012536 9.875 40.1328125 C5.38738117 39.28109537 2.00225889 37.62471692 -1.0625 34.1953125 C-4.07807179 29.71764529 -4.25213249 26.43757776 -4.2578125 21.08984375 C-4.25910156 19.93419922 -4.26039063 18.77855469 -4.26171875 17.58789062 C-4.25785156 16.38583984 -4.25398438 15.18378906 -4.25 13.9453125 C-4.25386719 12.73166016 -4.25773437 11.51800781 -4.26171875 10.26757812 C-4.26042969 9.11580078 -4.25914062 7.96402344 -4.2578125 6.77734375 C-4.25668457 5.71878174 -4.25555664 4.66021973 -4.25439453 3.56958008 C-4.05949864 -0.10071403 -3.75523109 0.15959732 0 0 Z M-1.125 3.1328125 C-1.21229047 7.19517652 -1.26548992 11.25729839 -1.3125 15.3203125 C-1.33763672 16.47080078 -1.36277344 17.62128906 -1.38867188 18.80664062 C-1.39833984 19.91845703 -1.40800781 21.03027344 -1.41796875 22.17578125 C-1.4336792 23.19696045 -1.44938965 24.21813965 -1.46557617 25.27026367 C-0.92983235 29.77320006 1.05660832 32.33595745 4.25 35.4453125 C10.59407293 38.39858783 18.07395202 37.94275889 24.875 36.5078125 C28.87859521 34.67283136 30.36927306 32.74400721 32.875 29.1328125 C33.89473129 26.07361862 33.99033602 24.00863225 33.97265625 20.80859375 C33.96943359 19.78056641 33.96621094 18.75253906 33.96289062 17.69335938 C33.95451172 16.62150391 33.94613281 15.54964844 33.9375 14.4453125 C33.93298828 13.36185547 33.92847656 12.27839844 33.92382812 11.16210938 C33.91203757 8.48565356 33.89410208 5.80922611 33.875 3.1328125 C30.245 3.1328125 26.615 3.1328125 22.875 3.1328125 C22.82601563 4.69773438 22.77703125 6.26265625 22.7265625 7.875 C22.65154271 9.91928928 22.57599455 11.96355922 22.5 14.0078125 C22.45359375 15.55662109 22.45359375 15.55662109 22.40625 17.13671875 C22.36757813 18.12285156 22.32890625 19.10898437 22.2890625 20.125 C22.2576416 21.03620605 22.2262207 21.94741211 22.19384766 22.88623047 C21.875 25.1328125 21.875 25.1328125 19.875 27.1328125 C17.18660615 27.40273156 14.58358064 27.22018607 11.875 27.1328125 C9.42801103 22.32835855 9.43879939 17.59489544 9.25 12.3203125 C9.21132813 11.43666016 9.17265625 10.55300781 9.1328125 9.64257812 C9.03899216 7.47298278 8.95592674 5.30292703 8.875 3.1328125 C5.575 3.1328125 2.275 3.1328125 -1.125 3.1328125 Z " fill="#EA531A" transform="translate(323.125,241.8671875)"/>
<path d="M0 0 C0.93147858 0.00359528 1.86295715 0.00719055 2.82266235 0.01089478 C3.79816544 0.01074875 4.77366852 0.01060272 5.7787323 0.01045227 C9.01987899 0.01115184 12.260969 0.01894626 15.50210571 0.02676392 C17.74270089 0.02862794 19.98329648 0.03005192 22.22389221 0.03105164 C28.13404456 0.03487804 34.04417251 0.04470936 39.95431519 0.05575562 C45.98000763 0.06596711 52.005704 0.07054869 58.03140259 0.07559204 C69.86409563 0.08633152 81.69677052 0.10340941 93.52944946 0.12442017 C93.19944946 1.77442017 92.86944946 3.42442017 92.52944946 5.12442017 C59.85944946 5.12442017 27.18944946 5.12442017 -6.47055054 5.12442017 C-6.80055054 3.80442017 -7.13055054 2.48442017 -7.47055054 1.12442017 C-5.52757729 -0.81855308 -2.58550872 0.00421719 0 0 Z " fill="#F4E0CE" transform="translate(110.47055053710938,293.8755798339844)"/>
<path d="M0 0 C1.3125 2.1875 1.3125 2.1875 1 5 C-0.45108699 7.82856813 -2.14888144 10.41868242 -4 13 C-3.37867188 13.26683594 -2.75734375 13.53367187 -2.1171875 13.80859375 C0.55818303 15.31410669 1.51211434 17.0948049 2.578125 19.9375 C3.39410593 23.92674012 2.70833285 27.33738755 1 31 C-2.45191081 35.04270239 -6.02780894 37.75389501 -11.453125 38.203125 C-19.40920881 38.33646719 -24.74906022 37.25078941 -31 32 C-30.54300722 26.97307937 -28.00758252 23.85103739 -25 20 C-25.680625 19.01 -26.36125 18.02 -27.0625 17 C-29.08043902 13.43257209 -29.45039827 10.93517609 -28.671875 6.92578125 C-27.12391233 2.48888825 -24.4865781 -0.25671095 -20.25 -2.375 C-12.87739733 -3.79280821 -6.73569972 -3.48813021 0 0 Z M-24 4 C-26.29013653 7.4352048 -26.17842973 8.985331 -26 13 C-25.34 13 -24.68 13 -24 13 C-23.67 14.65 -23.34 16.3 -23 18 C-21.54293274 18.50367757 -20.08429904 19.00282556 -18.625 19.5 C-17.81289063 19.7784375 -17.00078125 20.056875 -16.1640625 20.34375 C-14.05790758 21.09673305 -14.05790758 21.09673305 -12 21 C-11.67 22.65 -11.34 24.3 -11 26 C-15.82360189 26.19294408 -19.49646738 25.75747614 -24 24 C-27.24716062 27.48783514 -27.24716062 27.48783514 -28 32 C-21.59574563 34.90003971 -16.0259887 35.83413565 -9 35 C-5.4436007 33.68796267 -5.4436007 33.68796267 -3 32 C-3 31.01 -3 30.02 -3 29 C-2.34 29 -1.68 29 -1 29 C0.09223087 24.13362483 0.61178881 21.10121986 -1.875 16.625 C-5.20863107 13.22526294 -9.48378375 12.12167462 -14 11 C-14 10.01 -14 9.02 -14 8 C-11.03 8.33 -8.06 8.66 -5 9 C-2.74114676 5.74602492 -2.74114676 5.74602492 -2 2 C-9.54678699 -1.41174819 -17.59371733 -1.74922804 -24 4 Z M-21 22 C-20.34 22.66 -19.68 23.32 -19 24 C-16.89179203 23.6814823 -16.89179203 23.6814823 -15 23 C-17.97 22.505 -17.97 22.505 -21 22 Z " fill="#EB541A" transform="translate(400,244)"/>
<path d="M0 0 C0.99 0.66 1.98 1.32 3 2 C2.67 6.29 2.34 10.58 2 15 C-2 16 -2 16 -5.125 15.9375 C-8.13239112 15.67134345 -8.13239112 15.67134345 -10 18 C-10.35318601 20.09627345 -10.35318601 20.09627345 -10.37890625 22.5 C-10.41306641 23.386875 -10.44722656 24.27375 -10.48242188 25.1875 C-10.50884766 26.115625 -10.53527344 27.04375 -10.5625 28 C-10.62234232 29.83346686 -10.68596119 31.66681553 -10.75390625 33.5 C-10.77783447 34.3146875 -10.8017627 35.129375 -10.82641602 35.96875 C-11 38 -11 38 -12 40 C-14.29141286 40.05384521 -16.58318188 40.09272087 -18.875 40.125 C-20.15117187 40.14820313 -21.42734375 40.17140625 -22.7421875 40.1953125 C-26 40 -26 40 -28 38 C-28.24291992 36.19091797 -28.24291992 36.19091797 -28.23046875 33.9921875 C-28.22926025 33.1772583 -28.22805176 32.3623291 -28.22680664 31.52270508 C-28.21383545 30.6489624 -28.20086426 29.77521973 -28.1875 28.875 C-28.18032959 27.98514404 -28.17315918 27.09528809 -28.16577148 26.1784668 C-27.88528089 2.88528089 -27.88528089 2.88528089 -26 1 C-22.62895369 0.93966808 -19.27270523 0.97982943 -15.90234375 1.0390625 C-10.40466538 1.09914642 -5.52528104 -0.2959972 0 0 Z M-13 5 C-13.33 4.67 -13.66 4.34 -14 4 C-15.85287502 3.92773498 -17.70833878 3.9161878 -19.5625 3.9375 C-20.57441406 3.94652344 -21.58632813 3.95554688 -22.62890625 3.96484375 C-23.41136719 3.97644531 -24.19382812 3.98804688 -25 4 C-25.02477373 8.05679377 -25.04289493 12.11355806 -25.05493164 16.17041016 C-25.05995118 17.54964973 -25.06676819 18.92888402 -25.07543945 20.30810547 C-25.0876092 22.29392183 -25.09271633 24.27977749 -25.09765625 26.265625 C-25.10289307 27.45961914 -25.10812988 28.65361328 -25.11352539 29.88378906 C-25.01941946 32.46694617 -24.76626155 34.55008419 -24 37 C-19.45478763 37.42284305 -19.45478763 37.42284305 -15.30078125 35.94921875 C-13.30115889 32.95278764 -13.58388498 30.18312105 -13.5 26.625 C-13.38035124 21.5698397 -13.28139715 18.00887671 -10 14 C-9.01 14 -8.02 14 -7 14 C-4.66435067 13.68330179 -2.3306218 13.35179197 0 13 C0 9.7 0 6.4 0 3 C-4.92127034 2.83317728 -8.50343896 2.75171948 -13 5 Z " fill="#EB5519" transform="translate(309,241)"/>
<path d="M0 0 C0.66 0.33 1.32 0.66 2 1 C2.05429959 2.74965358 2.09292823 4.49979787 2.125 6.25 C2.14820313 7.22453125 2.17140625 8.1990625 2.1953125 9.203125 C1.99862781 12.0196498 1.44568916 13.60949036 0 16 C-0.69867188 15.91621094 -1.39734375 15.83242188 -2.1171875 15.74609375 C-3.48230469 15.59333984 -3.48230469 15.59333984 -4.875 15.4375 C-5.77992188 15.33308594 -6.68484375 15.22867187 -7.6171875 15.12109375 C-10.01653057 14.80325148 -10.01653057 14.80325148 -12 16 C-11.67 15.01 -11.34 14.02 -11 13 C-8.26094655 11.63047327 -6.02912668 11.87378639 -3 12 C-2.34 12.33 -1.68 12.66 -1 13 C-1 9.7 -1 6.4 -1 3 C-6.58500567 3.19898708 -6.58500567 3.19898708 -11 6 C-11.99 6 -12.98 6 -14 6 C-14 5.34 -14 4.68 -14 4 C-17.63 4 -21.26 4 -25 4 C-25 14.89 -25 25.78 -25 37 C-22.03 37 -19.06 37 -16 37 C-15.34 30.4 -14.68 23.8 -14 17 C-13.67 17 -13.34 17 -13 17 C-11.84062626 21.60068944 -11.85117363 26.04032028 -11.875 30.75 C-11.86919922 31.91982422 -11.86919922 31.91982422 -11.86328125 33.11328125 C-11.87329867 38.87329867 -11.87329867 38.87329867 -13 40 C-15.35313555 40.07271741 -17.70833668 40.08370868 -20.0625 40.0625 C-21.35285156 40.05347656 -22.64320313 40.04445313 -23.97265625 40.03515625 C-24.97167969 40.02355469 -25.97070312 40.01195312 -27 40 C-28.55043334 36.89913331 -28.1420075 33.62099234 -28.1328125 30.21875 C-28.13376923 29.44946167 -28.13472595 28.68017334 -28.13571167 27.88757324 C-28.13639254 26.26017169 -28.13454473 24.63276743 -28.13037109 23.00537109 C-28.1250215 20.51002927 -28.13031919 18.01486745 -28.13671875 15.51953125 C-28.13605795 13.94010377 -28.13477675 12.3606764 -28.1328125 10.78125 C-28.13483673 10.0322644 -28.13686096 9.28327881 -28.13894653 8.51159668 C-28.11496122 3.22992243 -28.11496122 3.22992243 -27 1 C-25.87980469 1.01160156 -24.75960937 1.02320313 -23.60546875 1.03515625 C-22.13281417 1.04453622 -20.66015778 1.0536362 -19.1875 1.0625 C-18.44951172 1.07087891 -17.71152344 1.07925781 -16.95117188 1.08789062 C-11.11032975 1.11431977 -5.90065782 -0.18732247 0 0 Z M-8 13 C-4 14 -4 14 -4 14 Z " fill="#E8561B" transform="translate(272,241)"/>
<path d="M0 0 C6.6 0 13.2 0 20 0 C25.125 10.375 25.125 10.375 24 16 C17.73 16 11.46 16 5 16 C0 5.625 0 5.625 0 0 Z " fill="#E3651F" transform="translate(156,266)"/>
<path d="M0 0 C1.3376661 4.01299829 -0.09667181 6.30799123 -1.6875 10 C-2.25010735 11.35097641 -2.81129558 12.70254464 -3.37109375 14.0546875 C-3.64937012 14.72209961 -3.92764648 15.38951172 -4.21435547 16.07714844 C-5.63536022 19.55503328 -6.88359374 23.09327711 -8.140625 26.6328125 C-9.04053534 29.11165643 -10.00866621 31.55644917 -11 34 C-11.66 34 -12.32 34 -13 34 C-13 34.94875 -13 35.8975 -13 36.875 C-13 38.58333333 -13 40.29166667 -13 42 C-12.030625 42.144375 -11.06125 42.28875 -10.0625 42.4375 C-7 43 -7 43 -6 44 C-5.01 43.34 -4.02 42.68 -3 42 C-2.34 42 -1.68 42 -1 42 C0.32 39.69 1.64 37.38 3 35 C4.33495946 37.66991893 3.77924641 39.0383683 3.1875 41.9375 C3.01605469 42.81277344 2.84460938 43.68804687 2.66796875 44.58984375 C2 47 2 47 0 50 C-1.97119141 50.34057617 -1.97119141 50.34057617 -4.3515625 50.29296875 C-5.20234375 50.28330078 -6.053125 50.27363281 -6.9296875 50.26367188 C-7.81914063 50.23853516 -8.70859375 50.21339844 -9.625 50.1875 C-10.5221875 50.17396484 -11.419375 50.16042969 -12.34375 50.14648438 C-14.56309789 50.11106925 -16.78125188 50.06168461 -19 50 C-20.42768331 45.39747226 -19.45732382 42.75618922 -17.6484375 38.37109375 C-17.39252838 37.74074722 -17.13661926 37.1104007 -16.87295532 36.46095276 C-16.05235213 34.44794597 -15.21405516 32.44287563 -14.375 30.4375 C-13.83345562 29.11701969 -13.29308009 27.79605939 -12.75390625 26.47460938 C-11.69370872 23.88208945 -10.62262356 21.2945157 -9.54199219 18.71044922 C-8.53607146 16.30287036 -7.55730055 13.88956988 -6.59082031 11.46533203 C-6.16124023 10.39524902 -5.73166016 9.32516602 -5.2890625 8.22265625 C-4.7314624 6.81318726 -4.7314624 6.81318726 -4.16259766 5.37524414 C-3.02848357 3.05819332 -1.93653888 1.67487269 0 0 Z " fill="#EC812E" transform="translate(124,232)"/>
<path d="M0 0 C0.92683594 -0.00515625 1.85367187 -0.0103125 2.80859375 -0.015625 C5.72304176 0.26548488 7.91140497 1.03752097 10.5625 2.25 C8.6875 7 8.6875 7 7.5625 9.25 C4.5925 8.92 1.6225 8.59 -1.4375 8.25 C-1.4375 9.24 -1.4375 10.23 -1.4375 11.25 C0.5425 11.91 2.5225 12.57 4.5625 13.25 C4.5625 13.91 4.5625 14.57 4.5625 15.25 C3.2321875 15.0953125 3.2321875 15.0953125 1.875 14.9375 C-2.44434858 15.34498572 -3.69392975 17.0222703 -6.4375 20.25 C-8.9375 19 -8.9375 19 -11.4375 17.25 C-11.4375 15.93 -11.4375 14.61 -11.4375 13.25 C-12.0975 13.25 -12.7575 13.25 -13.4375 13.25 C-13.78467213 9.51789965 -13.7297789 7.70929542 -11.6875 4.5 C-7.98791425 0.80041425 -5.2014079 -0.02885663 0 0 Z " fill="#FC5109" transform="translate(387.4375,243.75)"/>
<path d="M0 0 C1.32 0.33 2.64 0.66 4 1 C5.80600849 6.71902688 6.62698813 10.32570565 4 16 C0.40106316 19.91649009 -2.98988533 22.75075484 -8.453125 23.203125 C-16.40920881 23.33646719 -21.74906022 22.25078941 -28 17 C-27.55530671 11.96014269 -25.28656638 9.62365012 -22 6 C-21.195625 6.2165625 -21.195625 6.2165625 -20.375 6.4375 C-16.19069969 7.4285185 -12.30875882 8 -8 8 C-8 8.99 -8 9.98 -8 11 C-13.03511899 12.0070238 -16.23947038 11.97387813 -21 10 C-22.32 12.31 -23.64 14.62 -25 17 C-16.72185693 19.49906206 -8.1495681 20.52413756 0 17 C0 16.01 0 15.02 0 14 C0.66 14 1.32 14 2 14 C2.2993987 6.77967794 2.2993987 6.77967794 0 0 Z " fill="#EB6622" transform="translate(397,259)"/>
<path d="M0 0 C3.74371773 0.04827143 4.82125577 0.09392885 7.875 2.4375 C9.58284422 6.25981802 9.2989336 8.37383904 8.1875 12.375 C6.57115186 14.50384878 5.71591561 15.27573961 3.06640625 15.7734375 C-0.41332046 15.73822947 -3.10858166 15.69176326 -6.3125 14.25 C-8.43258495 11.59989382 -8.74492679 9.75366049 -8.8125 6.375 C-6.39844166 1.43715339 -5.39865266 0.2055124 0 0 Z M-2.8125 5.375 C-2.8125 7.025 -2.8125 8.675 -2.8125 10.375 C-0.41530568 11.05458603 -0.41530568 11.05458603 2.1875 11.375 C2.8475 10.715 3.5075 10.055 4.1875 9.375 C3.8689823 7.26679203 3.8689823 7.26679203 3.1875 5.375 C0.13836772 4.36388907 0.13836772 4.36388907 -2.8125 5.375 Z " fill="#F1E8E4" transform="translate(242.8125,287.625)"/>
<path d="M0 0 C1.27875 0.00257813 2.5575 0.00515625 3.875 0.0078125 C5.15375 0.00523437 6.4325 0.00265625 7.75 0 C10.875 0.1328125 10.875 0.1328125 11.875 1.1328125 C11.96226223 2.91352496 11.98199041 4.6976439 11.97265625 6.48046875 C11.96943359 7.56005859 11.96621094 8.63964844 11.96289062 9.75195312 C11.95451172 10.88826172 11.94613281 12.02457031 11.9375 13.1953125 C11.93298828 14.33548828 11.92847656 15.47566406 11.92382812 16.65039062 C11.91199747 19.47791601 11.8955141 22.3053389 11.875 25.1328125 C9.88989942 23.49573417 8.95652696 22.63185103 8.53442383 20.0480957 C8.55013428 19.26781006 8.56584473 18.48752441 8.58203125 17.68359375 C8.59169922 16.83603516 8.60136719 15.98847656 8.61132812 15.11523438 C8.63646484 14.23416016 8.66160156 13.35308594 8.6875 12.4453125 C8.70103516 11.55263672 8.71457031 10.65996094 8.72851562 9.74023438 C8.76385357 7.53750267 8.81766031 5.3350813 8.875 3.1328125 C5.575 3.1328125 2.275 3.1328125 -1.125 3.1328125 C-1.125 12.3728125 -1.125 21.6128125 -1.125 31.1328125 C-1.785 31.1328125 -2.445 31.1328125 -3.125 31.1328125 C-4.15382464 27.73830419 -4.25405489 24.62762937 -4.2578125 21.08984375 C-4.25910156 19.93419922 -4.26039063 18.77855469 -4.26171875 17.58789062 C-4.25785156 16.38583984 -4.25398438 15.18378906 -4.25 13.9453125 C-4.25386719 12.73166016 -4.25773437 11.51800781 -4.26171875 10.26757812 C-4.26042969 9.11580078 -4.25914062 7.96402344 -4.2578125 6.77734375 C-4.25668457 5.71878174 -4.25555664 4.66021973 -4.25439453 3.56958008 C-4.05949864 -0.10071403 -3.75523109 0.15959732 0 0 Z " fill="#F35414" transform="translate(323.125,241.8671875)"/>
<path d="M0 0 C5 0 5 0 6.58203125 1.3125 C7.72135417 2.875 8.86067708 4.4375 10 6 C10.33 4.02 10.66 2.04 11 0 C12.32 0 13.64 0 15 0 C15 4.95 15 9.9 15 15 C9.97862202 13.9957244 9.13756581 13.60239038 6 10 C5.67 11.65 5.34 13.3 5 15 C3.35 15 1.7 15 0 15 C0 10.05 0 5.1 0 0 Z " fill="#EBBCA6" transform="translate(363,288)"/>
<path d="M0 0 C5 0 5 0 6.58203125 1.3125 C7.72135417 2.875 8.86067708 4.4375 10 6 C10.33 4.02 10.66 2.04 11 0 C12.32 0 13.64 0 15 0 C15 4.95 15 9.9 15 15 C9.97862202 13.9957244 9.13756581 13.60239038 6 10 C5.67 11.65 5.34 13.3 5 15 C3.35 14.67 1.7 14.34 0 14 C0 9.38 0 4.76 0 0 Z " fill="#E6B9A5" transform="translate(258,288)"/>
<path d="M0 0 C0.33 1.65 0.66 3.3 1 5 C-1.31 5 -3.62 5 -6 5 C-6.33 6.65 -6.66 8.3 -7 10 C-6.01 8.68 -5.02 7.36 -4 6 C-1.03 6.495 -1.03 6.495 2 7 C2.125 12.75 2.125 12.75 1 15 C-7.96523405 15.61593211 -7.96523405 15.61593211 -11.625 13.4375 C-13.54211763 10.03897329 -13.54861638 7.84031465 -13 4 C-9.93472556 -1.19763927 -5.39221271 -0.41478559 0 0 Z " fill="#EAC9BA" transform="translate(398,288)"/>
<path d="M0 0 C0.66 0 1.32 0 2 0 C2 0.66 2 1.32 2 2 C34.34 2 66.68 2 100 2 C100.33 1.34 100.66 0.68 101 0 C100.67 1.32 100.34 2.64 100 4 C67.33 4 34.66 4 1 4 C0.67 2.68 0.34 1.36 0 0 Z " fill="#E9BFA1" transform="translate(103,295)"/>
<path d="M0 0 C3.11219218 3.11219218 4.06555608 7.16949245 5.5859375 11.25 C7.1024716 14.19928178 7.92096632 14.95181832 11 16 C11 16.66 11 17.32 11 18 C12.66289062 17.94779297 12.66289062 17.94779297 14.359375 17.89453125 C15.82290148 17.86638651 17.28644439 17.83908708 18.75 17.8125 C19.47960937 17.78736328 20.20921875 17.76222656 20.9609375 17.73632812 C24.2676931 17.691236 26.58932057 17.77361615 29.515625 19.38671875 C31 21 31 21 31 23 C22.75 23 14.5 23 6 23 C5.030625 20.669375 4.06125 18.33875 3.0625 15.9375 C2.75836182 15.21812256 2.45422363 14.49874512 2.14086914 13.75756836 C0.3990545 9.48421556 -0.6299613 5.61079969 -1 1 C-0.67 0.67 -0.34 0.34 0 0 Z " fill="#B43B12" transform="translate(143,231)"/>
<path d="M0 0 C6.6 0 13.2 0 20 0 C23 6 23 6 23 8 C21.85724609 7.98259766 21.85724609 7.98259766 20.69140625 7.96484375 C14.36159678 7.90952706 8.27444451 8.1634074 2 9 C-0.05164237 5.53785351 0 4.40610765 0 0 Z " fill="#B24208" transform="translate(156,266)"/>
<path d="M0 0 C1.65 0 3.3 0 5 0 C5.33 3.3 5.66 6.6 6 10 C6.99 10 7.98 10 9 10 C9.33 6.7 9.66 3.4 10 0 C11.65 0 13.3 0 15 0 C15.2391912 4.56235071 15.38375842 8.72080528 14.0625 13.125 C11.1851615 15.74076227 8.93682438 15.51915766 5.15625 15.46875 C2.43602058 14.87739578 1.54198982 14.32522275 0 12 C-0.29296875 9.08203125 -0.29296875 9.08203125 -0.1875 5.8125 C-0.16042969 4.72582031 -0.13335937 3.63914062 -0.10546875 2.51953125 C-0.07066406 1.68808594 -0.03585937 0.85664063 0 0 Z " fill="#ECCABB" transform="translate(296,288)"/>
<path d="M0 0 C0.66 1.32 1.32 2.64 2 4 C1 5 1 5 -2.5625 5.0625 C-3.696875 5.041875 -4.83125 5.02125 -6 5 C-6.33 6.32 -6.66 7.64 -7 9 C-4.29120665 10.35439668 -1.99066732 10.06501451 1 10 C1 11.32 1 12.64 1 14 C-1.55503162 15.67059759 -2.9038633 16.0040057 -6 15.875 C-9.53800495 14.84308189 -10.91772554 14.04332421 -13 11 C-13.55326548 7.12714161 -13.56331202 4.95518126 -11.5625 1.5625 C-7.78993176 -0.73784649 -4.30933841 -0.33148757 0 0 Z " fill="#E7C9BC" transform="translate(227,288)"/>
<path d="M0 0 C1.19496094 -0.00386719 1.19496094 -0.00386719 2.4140625 -0.0078125 C3.66316406 0.00378906 3.66316406 0.00378906 4.9375 0.015625 C5.77023438 0.00789062 6.60296875 0.00015625 7.4609375 -0.0078125 C8.25757813 -0.00523437 9.05421875 -0.00265625 9.875 0 C10.60589844 0.00225586 11.33679688 0.00451172 12.08984375 0.00683594 C13.9375 0.265625 13.9375 0.265625 15.9375 2.265625 C14.9475 4.245625 13.9575 6.225625 12.9375 8.265625 C12.75445312 7.62109375 12.57140625 6.9765625 12.3828125 6.3125 C11.02938105 3.89117556 11.02938105 3.89117556 7.6796875 3.65625 C6.40351563 3.60984375 5.12734375 3.5634375 3.8125 3.515625 C1.89050781 3.43054688 1.89050781 3.43054688 -0.0703125 3.34375 C-1.05773437 3.31796875 -2.04515625 3.2921875 -3.0625 3.265625 C-3.24425781 3.88308594 -3.42601562 4.50054687 -3.61328125 5.13671875 C-5.31970447 10.88605237 -7.12904726 16.58867866 -9.0625 22.265625 C-9.7225 22.265625 -10.3825 22.265625 -11.0625 22.265625 C-11.0625 23.255625 -11.0625 24.245625 -11.0625 25.265625 C-11.7225 25.265625 -12.3825 25.265625 -13.0625 25.265625 C-13.7225 26.585625 -14.3825 27.905625 -15.0625 29.265625 C-14.41431067 23.3222275 -12.26335789 18.04886258 -10.125 12.515625 C-9.76470703 11.55785156 -9.40441406 10.60007813 -9.03320312 9.61328125 C-5.3582866 0.01653792 -5.3582866 0.01653792 0 0 Z " fill="#EB5D1B" transform="translate(137.0625,206.734375)"/>
<path d="M0 0 C1.00842205 1.98378108 1.96806166 3.9148311 2.75 6 C4.6609267 9.05748272 6.6473469 10.79105074 10 12 C16.72445234 12.7087469 23.75675323 12.78953579 30 10 C32.35647001 7.65920243 32.35647001 7.65920243 34 5 C34.66 4.01 35.32 3.02 36 2 C36.66 2 37.32 2 38 2 C37.9260095 5.1076009 37.63075777 7.27573366 35.55078125 9.6640625 C29.08127545 15.36171836 23.78257614 16.39895491 15.234375 16.25390625 C9.85520059 15.83162807 6.05085348 14.33305476 1.5 11.375 C-0.79554076 7.74039379 -0.32191089 4.18484163 0 0 Z " fill="#ED6922" transform="translate(321,266)"/>
<path d="M0 0 C0.66 0 1.32 0 2 0 C15.11307934 32.62385562 15.11307934 32.62385562 17 40 C15.515 40.495 15.515 40.495 14 41 C14 40.34 14 39.68 14 39 C13.01 39 12.02 39 11 39 C10.93683594 38.41476563 10.87367188 37.82953125 10.80859375 37.2265625 C9.28800676 26.56644738 5.16339091 16.16364731 0.2578125 6.60546875 C-1 4 -1 4 -0.6875 1.625 C-0.460625 1.08875 -0.23375 0.5525 0 0 Z " fill="#C83F11" transform="translate(152,209)"/>
<path d="M0 0 C2.05078125 0.03255208 4.1015625 0.06510417 6.15234375 0.09765625 C6.77734375 1.97265625 6.77734375 1.97265625 7.15234375 4.09765625 C6.49234375 4.75765625 5.83234375 5.41765625 5.15234375 6.09765625 C5.81234375 6.75765625 6.47234375 7.41765625 7.15234375 8.09765625 C7.58984375 10.53515625 7.58984375 10.53515625 7.15234375 13.09765625 C4.96484375 15.03515625 4.96484375 15.03515625 2.15234375 16.09765625 C-0.66015625 15.28515625 -0.66015625 15.28515625 -2.84765625 14.09765625 C-2.84765625 12.77765625 -2.84765625 11.45765625 -2.84765625 10.09765625 C-1.52765625 10.09765625 -0.20765625 10.09765625 1.15234375 10.09765625 C0.49234375 9.72640625 -0.16765625 9.35515625 -0.84765625 8.97265625 C-2.84765625 7.09765625 -2.84765625 7.09765625 -3.16015625 3.97265625 C-2.74411074 0.14503757 -2.74411074 0.14503757 0 0 Z " fill="#E5B6A4" transform="translate(282.84765625,287.90234375)"/>
<path d="M0 0 C0.99 0.33 1.98 0.66 3 1 C2.67 2.98 2.34 4.96 2 7 C3.65 7 5.3 7 7 7 C6.67 7.99 6.34 8.98 6 10 C-0.2004612 12.67747188 -7.35575247 12.8350203 -14 12 C-15.890625 10.48046875 -15.890625 10.48046875 -17 9 C-15.56274129 8.83126522 -14.12518162 8.66509263 -12.6875 8.5 C-11.88699219 8.4071875 -11.08648437 8.314375 -10.26171875 8.21875 C-8 8 -8 8 -5 8 C-5 7.34 -5 6.68 -5 6 C-5.66 6 -6.32 6 -7 6 C-7 5.34 -7 4.68 -7 4 C-7.66 3.67 -8.32 3.34 -9 3 C-7.88625 2.87625 -6.7725 2.7525 -5.625 2.625 C-1.96896323 2.3534187 -1.96896323 2.3534187 0 0 Z " fill="#FB6711" transform="translate(345,267)"/>
<path d="M0 0 C1.43716841 2.2825616 2 3.71743071 2 6.4375 C0.60783162 10.00493149 -1.78090525 12.0766415 -5 14 C-12.14080945 16.8325541 -19.62122086 17.26397748 -27.03125 15.125 C-29.68683189 13.96509067 -31.80218765 12.88918339 -34 11 C-35.125 7.1875 -35.125 7.1875 -35 4 C-33.5 5.375 -33.5 5.375 -32 7 C-32 7.66 -32 8.32 -32 9 C-31.34 9 -30.68 9 -30 9 C-30 9.66 -30 10.32 -30 11 C-25.81936147 12.00303228 -21.85587757 12.16588178 -17.5625 12.1875 C-15.64630859 12.20876953 -15.64630859 12.20876953 -13.69140625 12.23046875 C-10.07012255 12.00437802 -7.33321598 11.40424841 -4 10 C-2.63359102 8.26838037 -2.63359102 8.26838037 -2 6 C-1.62875 4.9275 -1.2575 3.855 -0.875 2.75 C-0.58625 1.8425 -0.2975 0.935 0 0 Z " fill="#EB6921" transform="translate(230,266)"/>
<path d="M0 0 C0 0.66 0 1.32 0 2 C0.66 2.33 1.32 2.66 2 3 C-0.64 3.33 -3.28 3.66 -6 4 C-6.99 6.64 -7.98 9.28 -9 12 C-4.38 12 0.24 12 5 12 C5.33 13.32 5.66 14.64 6 16 C3.20826945 16.02690104 0.41679652 16.04679053 -2.375 16.0625 C-3.56609375 16.07506836 -3.56609375 16.07506836 -4.78125 16.08789062 C-10.7734375 16.11328125 -10.7734375 16.11328125 -13 15 C-12.46179265 9.725568 -11.42664915 5.66663298 -9 1 C-5.8035914 -0.06546953 -3.34252724 -0.07427838 0 0 Z " fill="#F0832C" transform="translate(149,252)"/>
<path d="M0 0 C2.0625 0.4375 2.0625 0.4375 4 1 C4 1.66 4 2.32 4 3 C4.99 3 5.98 3 7 3 C6.6875 4.9375 6.6875 4.9375 6 7 C-1.57923973 9.52641324 -8.88968223 8.21976654 -16 5 C-16 4.01 -16 3.02 -16 2 C-13.1875 1.375 -13.1875 1.375 -10 1 C-9.01 1.66 -8.02 2.32 -7 3 C-7 2.34 -7 1.68 -7 1 C-5.5459375 1.0309375 -5.5459375 1.0309375 -4.0625 1.0625 C-1.12534105 1.35618499 -1.12534105 1.35618499 0 0 Z " fill="#FB6814" transform="translate(388,271)"/>
<path d="M0 0 C0.66 0.66 1.32 1.32 2 2 C1.61061769 6.73453491 -0.50999976 11.18521875 -2.25 15.5625 C-2.56283936 16.35809326 -2.87567871 17.15368652 -3.19799805 17.97338867 C-5.38624315 23.5159353 -7.6364619 29.03094913 -9.95703125 34.51953125 C-11.00079349 37.00188714 -12.00689019 39.49700378 -13 42 C-13.66 42 -14.32 42 -15 42 C-12.67307748 31.67073416 -9.54759931 21.6281651 -5.25 11.9375 C-4.10961016 9.25758387 -3.43485793 6.87006231 -3 4 C-2.34 4 -1.68 4 -1 4 C-0.67 2.68 -0.34 1.36 0 0 Z " fill="#ED6C21" transform="translate(141,232)"/>
<path d="M0 0 C4.62 0 9.24 0 14 0 C13.67 1.32 13.34 2.64 13 4 C12.01 4 11.02 4 10 4 C9.67 7.63 9.34 11.26 9 15 C7.35 14.67 5.7 14.34 4 14 C4 10.7 4 7.4 4 4 C2.68 3.67 1.36 3.34 0 3 C0 2.01 0 1.02 0 0 Z " fill="#EBC7B7" transform="translate(331,288)"/>
<path d="M0 0 C0.33 0 0.66 0 1 0 C1.04898437 0.74765625 1.09796875 1.4953125 1.1484375 2.265625 C1.22320312 3.25046875 1.29796875 4.2353125 1.375 5.25 C1.44460938 6.22453125 1.51421875 7.1990625 1.5859375 8.203125 C1.99017787 10.93365427 2.76813652 12.57633365 4 15 C4 16.32 4 17.64 4 19 C9.01535052 18.67039784 9.01535052 18.67039784 13 16 C13.30599063 13.43083343 13.51087087 10.95241616 13.625 8.375 C13.68300781 7.31539063 13.68300781 7.31539063 13.7421875 6.234375 C13.83647724 4.49001476 13.91932891 2.74504309 14 1 C14.33 1 14.66 1 15 1 C15.33 5.62 15.66 10.24 16 15 C16.33 15 16.66 15 17 15 C16.67 17.31 16.34 19.62 16 22 C13.70858714 22.05384521 11.41681812 22.09272087 9.125 22.125 C7.84882813 22.14820313 6.57265625 22.17140625 5.2578125 22.1953125 C2 22 2 22 0 20 C-0.22705078 17.93701172 -0.22705078 17.93701172 -0.1953125 15.4296875 C-0.18886719 14.53378906 -0.18242187 13.63789063 -0.17578125 12.71484375 C-0.15902344 11.77769531 -0.14226562 10.84054687 -0.125 9.875 C-0.11597656 8.93011719 -0.10695313 7.98523438 -0.09765625 7.01171875 C-0.07404522 4.67422708 -0.04111516 2.33723877 0 0 Z " fill="#F06A22" transform="translate(281,259)"/>
<path d="M0 0 C0.05429959 1.74965358 0.09292823 3.49979787 0.125 5.25 C0.14820313 6.22453125 0.17140625 7.1990625 0.1953125 8.203125 C-0.00137219 11.0196498 -0.55431084 12.60949036 -2 15 C-2.69867188 14.91621094 -3.39734375 14.83242188 -4.1171875 14.74609375 C-5.48230469 14.59333984 -5.48230469 14.59333984 -6.875 14.4375 C-7.77992188 14.33308594 -8.68484375 14.22867187 -9.6171875 14.12109375 C-12.01653057 13.80325148 -12.01653057 13.80325148 -14 15 C-13.67 14.01 -13.34 13.02 -13 12 C-10.26094655 10.63047327 -8.02912668 10.87378639 -5 11 C-4.34 11.33 -3.68 11.66 -3 12 C-3 8.7 -3 5.4 -3 2 C-8.58500567 2.19898708 -8.58500567 2.19898708 -13 5 C-13.99 5 -14.98 5 -16 5 C-16 3.68 -16 2.36 -16 1 C-11.02155978 -0.99137609 -5.05462732 -2.52731366 0 0 Z M-10 12 C-6 13 -6 13 -6 13 Z " fill="#E9521A" transform="translate(274,242)"/>
<path d="M0 0 C0.33 0 0.66 0 1 0 C2.15937374 4.60068944 2.14882637 9.04032028 2.125 13.75 C2.12886719 14.52988281 2.13273437 15.30976563 2.13671875 16.11328125 C2.12670133 21.87329867 2.12670133 21.87329867 1 23 C-3.66845228 23.14426614 -8.32865953 23.04208415 -13 23 C-12.67 18.05 -12.34 13.1 -12 8 C-11.67 8 -11.34 8 -11 8 C-11 11.96 -11 15.92 -11 20 C-8.03 20 -5.06 20 -2 20 C-1.34 13.4 -0.68 6.8 0 0 Z " fill="#EF6B25" transform="translate(258,258)"/>
<path d="M0 0 C1.32 0 2.64 0 4 0 C4 3.63 4 7.26 4 11 C5.98 11 7.96 11 10 11 C10 12.32 10 13.64 10 15 C6.7 15 3.4 15 0 15 C-0.84046417 11.63814334 -1.13504864 9.21396412 -1.125 5.8125 C-1.12757813 4.93207031 -1.13015625 4.05164063 -1.1328125 3.14453125 C-1 1 -1 1 0 0 Z " fill="#E7C9BF" transform="translate(318,288)"/>
<path d="M0 0 C0.99 0 1.98 0 3 0 C2.67 10.23 2.34 20.46 2 31 C1.34 31 0.68 31 0 31 C-1.02882464 27.60549169 -1.12905489 24.49481687 -1.1328125 20.95703125 C-1.13410156 19.80138672 -1.13539063 18.64574219 -1.13671875 17.45507812 C-1.13285156 16.25302734 -1.12898438 15.05097656 -1.125 13.8125 C-1.12886719 12.59884766 -1.13273437 11.38519531 -1.13671875 10.13476562 C-1.13542969 8.98298828 -1.13414062 7.83121094 -1.1328125 6.64453125 C-1.13168457 5.58596924 -1.13055664 4.52740723 -1.12939453 3.43676758 C-1 1 -1 1 0 0 Z " fill="#EB571A" transform="translate(320,242)"/>
<path d="M0 0 C4.1840674 2.0920337 4.57788316 2.38049865 6.25 6.375 C6.58515625 7.14585937 6.9203125 7.91671875 7.265625 8.7109375 C8 11 8 11 8 15 C6.35 15.66 4.7 16.32 3 17 C3 16.01 3 15.02 3 14 C-3.6 14 -10.2 14 -17 14 C-17.33 14.99 -17.66 15.98 -18 17 C-18 16.34 -18 15.68 -18 15 C-19.32 14.67 -20.64 14.34 -22 14 C-18.86149936 13.07446257 -16.06319222 12.88335353 -12.796875 12.90234375 C-11.8171875 12.90556641 -10.8375 12.90878906 -9.828125 12.91210938 C-8.81234375 12.92048828 -7.7965625 12.92886719 -6.75 12.9375 C-5.203125 12.94426758 -5.203125 12.94426758 -3.625 12.95117188 C-1.08327427 12.96293912 1.45833319 12.97937989 4 13 C4 11.68 4 10.36 4 9 C3.34 9 2.68 9 2 9 C1.34 6.03 0.68 3.06 0 0 Z " fill="#E6641F" transform="translate(173,252)"/>
<path d="M0 0 C3.74371773 0.04827143 4.82125577 0.09392885 7.875 2.4375 C9.58284422 6.25981802 9.2989336 8.37383904 8.1875 12.375 C6.57115186 14.50384878 5.71591561 15.27573961 3.06640625 15.7734375 C-0.41332046 15.73822947 -3.10858166 15.69176326 -6.3125 14.25 C-8.43258495 11.59989382 -8.74492679 9.75366049 -8.8125 6.375 C-6.39844166 1.43715339 -5.39865266 0.2055124 0 0 Z M-5.25 3 C-7.10275952 5.32778301 -7.10275952 5.32778301 -6.75 8.4375 C-5.69119233 12.15826653 -5.69119233 12.15826653 -2.8125 14.375 C-0.03931778 14.46024126 2.55137616 14.25930481 5.1875 13.375 C7.54889302 10.48038099 7.54889302 10.48038099 7 6.8125 C6.53910238 3.11674248 6.53910238 3.11674248 3.1875 1.375 C-0.4505818 0.91056403 -2.16984354 0.94656236 -5.25 3 Z " fill="#E7BBA7" transform="translate(242.8125,287.625)"/>
<path d="M0 0 C1.35539616 4.06618847 -0.14988502 6.49927177 -1.75 10.25 C-2.01554687 10.89324219 -2.28109375 11.53648437 -2.5546875 12.19921875 C-4.33016889 16.48278308 -6.16811727 20.74032088 -8 25 C-8.66 25 -9.32 25 -10 25 C-10.66 26.32 -11.32 27.64 -12 29 C-11.45493465 22.88866122 -9.5443849 17.86054491 -7.125 12.25 C-6.77308594 11.40050781 -6.42117187 10.55101562 -6.05859375 9.67578125 C-3.15286603 2.83813944 -3.15286603 2.83813944 0 0 Z " fill="#EA6F26" transform="translate(124,232)"/>
<path d="M0 0 C1.65 0 3.3 0 5 0 C5 4.95 5 9.9 5 15 C3.35 15 1.7 15 0 15 C0 10.05 0 5.1 0 0 Z " fill="#EDC2B0" transform="translate(351,288)"/>
<path d="M0 0 C1.32 0 2.64 0 4 0 C4.268125 0.763125 4.53625 1.52625 4.8125 2.3125 C5.94424112 4.87380884 6.91223401 6.19692938 9 8 C9.33 5.36 9.66 2.72 10 0 C10.66 0 11.32 0 12 0 C12 4.29 12 8.58 12 13 C7.46213776 10.73106888 6.05321843 8.90133466 3 5 C2.67 7.64 2.34 10.28 2 13 C1.34 13 0.68 13 0 13 C0 8.71 0 4.42 0 0 Z " fill="#F0E0D9" transform="translate(260,289)"/>
<path d="M0 0 C5.94 0 11.88 0 18 0 C18 0.99 18 1.98 18 3 C14.38132441 4.2062252 11.07493749 4.10816918 7.3125 4.0625 C6.61060547 4.05798828 5.90871094 4.05347656 5.18554688 4.04882812 C3.45699462 4.03706927 1.72848635 4.01913454 0 4 C0 2.68 0 1.36 0 0 Z " fill="#7F2806" transform="translate(157,266)"/>
<path d="M0 0 C1.88033681 3.63288374 3.50698952 7.37028668 5.125 11.125 C5.40214844 11.75792969 5.67929688 12.39085937 5.96484375 13.04296875 C8 17.76493227 8 17.76493227 8 20 C7.01 20.33 6.02 20.66 5 21 C5 20.34 5 19.68 5 19 C4.01 19 3.02 19 2 19 C0.67611771 12.56971459 -0.24794402 6.5705166 0 0 Z " fill="#D64811" transform="translate(161,229)"/>
<path d="M0 0 C0 0.66 0 1.32 0 2 C0.66 2.33 1.32 2.66 2 3 C-0.64 3.33 -3.28 3.66 -6 4 C-6.66 5.98 -7.32 7.96 -8 10 C-8.66 10 -9.32 10 -10 10 C-10 11.32 -10 12.64 -10 14 C-10.99 14.33 -11.98 14.66 -13 15 C-12.46179265 9.725568 -11.42664915 5.66663298 -9 1 C-5.8035914 -0.06546953 -3.34252724 -0.07427838 0 0 Z " fill="#E7893B" transform="translate(149,252)"/>
<path d="M0 0 C0.66 0 1.32 0 2 0 C3.7265625 1.96875 3.7265625 1.96875 5.625 4.5 C6.25664062 5.3353125 6.88828125 6.170625 7.5390625 7.03125 C8.02117187 7.6809375 8.50328125 8.330625 9 9 C9.33 6.03 9.66 3.06 10 0 C10.66 0 11.32 0 12 0 C12 4.29 12 8.58 12 13 C7.18570084 10.59285042 5.3654918 8.13037629 2 4 C1.67 6.97 1.34 9.94 1 13 C0.67 13 0.34 13 0 13 C0 8.71 0 4.42 0 0 Z " fill="#F4EAE6" transform="translate(365,289)"/>
<path d="M0 0 C0.33 1.32 0.66 2.64 1 4 C-4.28 4 -9.56 4 -15 4 C-15 3.01 -15 2.02 -15 1 C-9.94997778 -0.03590199 -5.12583611 -0.10251672 0 0 Z " fill="#F36410" transform="translate(177,275)"/>
<path d="M0 0 C0.66 0.66 1.32 1.32 2 2 C1.6046932 5.68325543 0.34549646 8.90605696 -1.0625 12.3125 C-1.42472656 13.19550781 -1.78695312 14.07851562 -2.16015625 14.98828125 C-2.57587891 15.98408203 -2.57587891 15.98408203 -3 17 C-3.66 17 -4.32 17 -5 17 C-4.48041715 12.62065881 -3.94324258 8.31196609 -3 4 C-2.34 4 -1.68 4 -1 4 C-0.67 2.68 -0.34 1.36 0 0 Z " fill="#EE601C" transform="translate(141,232)"/>
<path d="M0 0 C1.7325 0.1546875 1.7325 0.1546875 3.5 0.3125 C5.5 3.3125 5.5 3.3125 5.1875 5.9375 C4.5 8.3125 4.5 8.3125 3.5 9.3125 C0.0625 9.5 0.0625 9.5 -3.5 9.3125 C-5.5 7.3125 -5.5 7.3125 -5.75 4.8125 C-5.33562907 0.66879066 -4.02091338 0.35901012 0 0 Z M-3.5 2.3125 C-3.5 3.9625 -3.5 5.6125 -3.5 7.3125 C-1.10280568 7.99208603 -1.10280568 7.99208603 1.5 8.3125 C2.16 7.6525 2.82 6.9925 3.5 6.3125 C3.1814823 4.20429203 3.1814823 4.20429203 2.5 2.3125 C-0.54913228 1.30138907 -0.54913228 1.30138907 -3.5 2.3125 Z " fill="#E7BFAC" transform="translate(243.5,290.6875)"/>
<path d="M0 0 C1.66171502 2.49257253 2.9387679 4.79516513 4.1875 7.5 C4.55230469 8.2734375 4.91710937 9.046875 5.29296875 9.84375 C6 12 6 12 5 15 C4.34 14.34 3.68 13.68 3 13 C2.01 13.66 1.02 14.32 0 15 C0 10.05 0 5.1 0 0 Z " fill="#D53D04" transform="translate(155,222)"/>
<path d="M0 0 C0.66 1.32 1.32 2.64 2 4 C0.85724609 3.98259766 0.85724609 3.98259766 -0.30859375 3.96484375 C-6.63840322 3.90952706 -12.72555549 4.1634074 -19 5 C-19.33 4.34 -19.66 3.68 -20 3 C-17.51128017 2.17042672 -15.55813012 1.75467633 -12.98828125 1.46484375 C-12.23095703 1.37783203 -11.47363281 1.29082031 -10.69335938 1.20117188 C-9.90767578 1.11416016 -9.12199219 1.02714844 -8.3125 0.9375 C-7.51521484 0.84662109 -6.71792969 0.75574219 -5.89648438 0.66210938 C-3.931315 0.43852723 -1.9656983 0.21888316 0 0 Z " fill="#CB5110" transform="translate(177,270)"/>
<path d="M0 0 C0.309375 0.9590625 0.309375 0.9590625 0.625 1.9375 C1.89538209 4.34925077 1.89538209 4.34925077 5.125 4.75 C6.07375 4.8325 7.0225 4.915 8 5 C8.33 4.34 8.66 3.68 9 3 C9.66 3.33 10.32 3.66 11 4 C10.34 5.32 9.68 6.64 9 8 C1.49230769 8.36923077 1.49230769 8.36923077 -1 6.5 C-1.33 6.005 -1.66 5.51 -2 5 C-1 2 -1 2 0 0 Z " fill="#EA5D20" transform="translate(208,262)"/>
<path d="M0 0 C1.62463842 -0.05395478 3.24978541 -0.09277195 4.875 -0.125 C5.77992188 -0.14820313 6.68484375 -0.17140625 7.6171875 -0.1953125 C10 0 10 0 12 2 C11.01 3.98 10.02 5.96 9 8 C8.7215625 7.0409375 8.7215625 7.0409375 8.4375 6.0625 C7.05753944 3.57873787 7.05753944 3.57873787 3.375 3.25 C2.26125 3.1675 1.1475 3.085 0 3 C0 2.01 0 1.02 0 0 Z " fill="#ED5216" transform="translate(141,207)"/>
<path d="M0 0 C0.33 0 0.66 0 1 0 C1.33 3.63 1.66 7.26 2 11 C2.33 11 2.66 11 3 11 C3 13.97 3 16.94 3 20 C3.99 20 4.98 20 6 20 C6 20.66 6 21.32 6 22 C1.125 21.125 1.125 21.125 0 20 C-0.08669432 18.5112814 -0.10703494 17.018555 -0.09765625 15.52734375 C-0.09443359 14.62822266 -0.09121094 13.72910156 -0.08789062 12.80273438 C-0.07951172 11.85720703 -0.07113281 10.91167969 -0.0625 9.9375 C-0.05798828 8.98810547 -0.05347656 8.03871094 -0.04882812 7.06054688 C-0.0370011 4.70696935 -0.02052025 2.35351523 0 0 Z " fill="#E0642C" transform="translate(281,259)"/>
<path d="M0 0 C1.22589844 0.01353516 1.22589844 0.01353516 2.4765625 0.02734375 C3.41628906 0.04474609 3.41628906 0.04474609 4.375 0.0625 C5.035 1.3825 5.695 2.7025 6.375 4.0625 C6.045 4.3925 5.715 4.7225 5.375 5.0625 C2.68417128 4.88614548 0.04648554 4.44414079 -2.625 4.0625 C-2.625 3.7325 -2.625 3.4025 -2.625 3.0625 C-0.975 2.7325 0.675 2.4025 2.375 2.0625 C-1.68106165 2.53050711 -5.09088679 2.94203208 -8.625 5.0625 C-6.51899199 0.39919656 -5.01778996 -0.07168271 0 0 Z " fill="#E4B5A1" transform="translate(222.625,287.9375)"/>
<path d="M0 0 C1.53445094 3.06890187 0.54984289 5.70094266 0 9 C-0.99 9.33 -1.98 9.66 -3 10 C-3.33 10.66 -3.66 11.32 -4 12 C-5.98 12 -7.96 12 -10 12 C-8.6875 9.5 -8.6875 9.5 -7 7 C-6.01 7 -5.02 7 -4 7 C-2.68 4.69 -1.36 2.38 0 0 Z " fill="#F37923" transform="translate(127,267)"/>
<path d="M0 0 C0.33 0 0.66 0 1 0 C1.86603643 3.75513397 2.16336696 7.27336758 2.1875 11.125 C2.20167969 12.15882813 2.21585937 13.19265625 2.23046875 14.2578125 C2 17 2 17 0 20 C-0.66 20 -1.32 20 -2 20 C-1.34 13.4 -0.68 6.8 0 0 Z " fill="#F56019" transform="translate(258,258)"/>
<path d="M0 0 C2.64 0.33 5.28 0.66 8 1 C7.67 2.32 7.34 3.64 7 5 C4.03 5 1.06 5 -2 5 C-1.34 3.35 -0.68 1.7 0 0 Z " fill="#FA871E" transform="translate(109,274)"/>
<path d="M0 0 C0.99 0.33 1.98 0.66 3 1 C3.33 2.98 3.66 4.96 4 7 C-2.6 6.67 -9.2 6.34 -16 6 C-15.67 5.01 -15.34 4.02 -15 3 C-15 3.66 -15 4.32 -15 5 C-9.72 5 -4.44 5 1 5 C0.67 3.35 0.34 1.7 0 0 Z " fill="#E46F28" transform="translate(177,274)"/>
<path d="M0 0 C0.99 0.33 1.98 0.66 3 1 C1.125 4.875 1.125 4.875 0 6 C-5.73611111 6.27314815 -5.73611111 6.27314815 -8 6 C-8.66 5.34 -9.32 4.68 -10 4 C-9.67 3.01 -9.34 2.02 -9 1 C-8.34 1 -7.68 1 -7 1 C-7 1.66 -7 2.32 -7 3 C-4.69 3 -2.38 3 0 3 C0 2.01 0 1.02 0 0 Z " fill="#EC601F" transform="translate(343,264)"/>
<path d="M0 0 C1.65 0.33 3.3 0.66 5 1 C5 1.33 5 1.66 5 2 C3.35 2 1.7 2 0 2 C0.825 2.721875 1.65 3.44375 2.5 4.1875 C5 7 5 7 5.3125 9.8125 C5.209375 10.534375 5.10625 11.25625 5 12 C3.35 12.33 1.7 12.66 0 13 C-0.33 12.34 -0.66 11.68 -1 11 C0.65 11 2.3 11 4 11 C3.154375 10.113125 2.30875 9.22625 1.4375 8.3125 C-1.02603251 5.3991652 -1.02603251 5.3991652 -0.8125 2.125 C-0.544375 1.42375 -0.27625 0.7225 0 0 Z " fill="#F0E7E5" transform="translate(283,289)"/>
<path d="M0 0 C2.64 0.33 5.28 0.66 8 1 C6.515 2.485 6.515 2.485 5 4 C4.01 3.67 3.02 3.34 2 3 C1.01 3.99 0.02 4.98 -1 6 C-0.67 4.02 -0.34 2.04 0 0 Z M-2 6 C-1.67 6.66 -1.34 7.32 -1 8 C-0.01 8.33 0.98 8.66 2 9 C2 9.33 2 9.66 2 10 C-0.31 9.67 -2.62 9.34 -5 9 C-4.01 8.01 -3.02 7.02 -2 6 Z " fill="#FA6712" transform="translate(208,269)"/>
<path d="M0 0 C5.63281599 -0.2396943 10.54538831 0.61470179 16 2 C16 2.33 16 2.66 16 3 C10.72 3 5.44 3 0 3 C0 2.01 0 1.02 0 0 Z " fill="#912702" transform="translate(151,250)"/>
<path d="M0 0 C0.33 0.66 0.66 1.32 1 2 C-4.28 2.66 -9.56 3.32 -15 4 C-15 3.01 -15 2.02 -15 1 C-9.94997778 -0.03590199 -5.12583611 -0.10251672 0 0 Z " fill="#E45B0F" transform="translate(176,273)"/>
<path d="M0 0 C0 0.99 0 1.98 0 3 C-1.58409994 2.88512252 -3.16728963 2.75765492 -4.75 2.625 C-5.63171875 2.55539063 -6.5134375 2.48578125 -7.421875 2.4140625 C-9.99066382 2.00149945 -11.75841015 1.28839043 -14 0 C-4.58997722 -1.33257403 -4.58997722 -1.33257403 0 0 Z " fill="#AB370A" transform="translate(172,250)"/>
<path d="M0 0 C2.97 0 5.94 0 9 0 C5.23452331 3.76547669 3.09826415 3.91348469 -2 5 C-1.34 3.35 -0.68 1.7 0 0 Z " fill="#FB851B" transform="translate(143,255)"/>
<path d="M0 0 C1.04449911 3.13349732 0.93423645 3.98968256 0 7 C-0.66 7 -1.32 7 -2 7 C-2 8.32 -2 9.64 -2 11 C-2.99 11.33 -3.98 11.66 -5 12 C-4.67 9.69 -4.34 7.38 -4 5 C-3.01 4.67 -2.02 4.34 -1 4 C-0.26676204 1.98491642 -0.26676204 1.98491642 0 0 Z " fill="#E9914E" transform="translate(141,255)"/>
<path d="M0 0 C2.40072955 2.88087546 4.47291037 5.56404834 6 9 C4.02 9.33 2.04 9.66 0 10 C0 9.34 0 8.68 0 8 C0.99 7.67 1.98 7.34 3 7 C1.68 6.01 0.36 5.02 -1 4 C-0.67 2.68 -0.34 1.36 0 0 Z " fill="#E5BEAD" transform="translate(281,291)"/>
<path d="M0 0 C0.33 0.99 0.66 1.98 1 3 C-1.64 3 -4.28 3 -7 3 C-7.33 2.34 -7.66 1.68 -8 1 C-5.29120665 -0.35439668 -2.99066732 -0.06501451 0 0 Z " fill="#F96D14" transform="translate(177,276)"/>
<path d="M0 0 C0.33 1.32 0.66 2.64 1 4 C4.63 4 8.26 4 12 4 C12 4.33 12 4.66 12 5 C9.36 5 6.72 5 4 5 C4 5.66 4 6.32 4 7 C3.01 7 2.02 7 1 7 C0.67 4.69 0.34 2.38 0 0 Z " fill="#A33E0B" transform="translate(156,266)"/>
<path d="M0 0 C-0.33 0.66 -0.66 1.32 -1 2 C-3.06640625 2.4140625 -3.06640625 2.4140625 -5.5625 2.625 C-6.38878906 2.69976562 -7.21507812 2.77453125 -8.06640625 2.8515625 C-9.02353516 2.92503906 -9.02353516 2.92503906 -10 3 C-9.01 2.67 -8.02 2.34 -7 2 C-7 1.34 -7 0.68 -7 0 C-3.98968256 -0.93423645 -3.13349732 -1.04449911 0 0 Z " fill="#FB6B13" transform="translate(224,276)"/>
<path d="M0 0 C4 1 4 1 4 1 Z M0 1 C0 1.66 0 2.32 0 3 C-0.66 3 -1.32 3 -2 3 C-2.66 4.98 -3.32 6.96 -4 9 C-4.33 9 -4.66 9 -5 9 C-5.1875 6.125 -5.1875 6.125 -5 3 C-2 1 -2 1 0 1 Z " fill="#F05212" transform="translate(264,254)"/>
<path d="M0 0 C0.66 0.66 1.32 1.32 2 2 C1.77256695 4.95662966 1.38764062 6.55033688 -0.5625 8.8125 C-1.036875 9.204375 -1.51125 9.59625 -2 10 C-1.125 2.25 -1.125 2.25 0 0 Z " fill="#E55815" transform="translate(141,232)"/>
<path d="M0 0 C0.99 0 1.98 0 3 0 C3 1.32 3 2.64 3 4 C1.35 4.66 -0.3 5.32 -2 6 C-2.33 4.68 -2.66 3.36 -3 2 C-2.01 2 -1.02 2 0 2 C0 1.34 0 0.68 0 0 Z " fill="#DC5B25" transform="translate(178,263)"/>
<path d="M0 0 C0.33 0 0.66 0 1 0 C1 4.29 1 8.58 1 13 C0.01 12.67 -0.98 12.34 -2 12 C-2 11.34 -2 10.68 -2 10 C-1.34 10 -0.68 10 0 10 C0 6.7 0 3.4 0 0 Z " fill="#EDE7E7" transform="translate(271,289)"/>
<path d="M0 0 C0.99 0.33 1.98 0.66 3 1 C2.67 1.99 2.34 2.98 2 4 C-0.64 3.67 -3.28 3.34 -6 3 C-6 2.67 -6 2.34 -6 2 C-4.02 1.67 -2.04 1.34 0 1 C0 0.67 0 0.34 0 0 Z " fill="#E4AD94" transform="translate(226,289)"/>
<path d="M0 0 C0.66 0 1.32 0 2 0 C2 0.66 2 1.32 2 2 C4.31 2 6.62 2 9 2 C6.42786866 3.61949011 5.32330841 4.04408751 2.25 3.625 C1.5075 3.41875 0.765 3.2125 0 3 C0 2.01 0 1.02 0 0 Z " fill="#E8B792" transform="translate(103,295)"/>
<path d="M0 0 C3 3.875 3 3.875 3 5 C1.02 5 -0.96 5 -3 5 C-2.01 3.35 -1.02 1.7 0 0 Z " fill="#F8811D" transform="translate(120,274)"/>
</svg>
